<?xml version="1.0" encoding="UTF-8"?>
<svg width="43px" height="31px" viewBox="0 0 43 31" version="1.1" xmlns="http://www.w3.org/2000/svg" xmlns:xlink="http://www.w3.org/1999/xlink">
    <title>8C0114E9-3E7F-4371-A45C-CEAFB4DD00E2</title>
    <g id="Page-1" stroke="none" stroke-width="1" fill="none" fill-rule="evenodd" opacity="0.400000006">
        <g id="Style-sheet-RBL" transform="translate(-287.000000, -894.000000)" fill="#000000" fill-rule="nonzero">
            <g id="noun-change-password-4143495" transform="translate(287.000000, 894.000000)">
                <path d="M9.95639212,25 C10.0227811,25.2222222 10.0227811,25.3703704 9.89000314,25.5925926 C9.82361417,25.7407407 9.69083621,25.8888889 9.49166929,25.8888889 C9.29250236,25.8888889 9.1597244,25.8888889 9.02694645,25.7407407 L7.96472283,24.8518519 L8.09750079,26.2592593 C8.09750079,26.4814815 8.09750079,26.6296296 7.96472283,26.7777778 C7.83194488,26.9259259 7.69916693,27 7.5,27 C7.30083307,27 7.16805512,26.9259259 7.03527717,26.7777778 C6.90249921,26.6296296 6.90249921,26.4074074 6.90249921,26.2592593 L7.03527717,24.8518519 L5.97305355,25.7407407 C5.70749764,25.962963 5.37555276,25.962963 5.17638583,25.6666667 L5.10999686,25.5925926 C4.9772189,25.4444444 4.9772189,25.2222222 5.04360788,25 C5.10999686,24.8518519 5.24277481,24.7037037 5.37555276,24.6296296 L6.50416536,24.037037 L5.37555276,23.4444444 C5.24277481,23.3703704 5.10999686,23.2222222 5.04360788,23 C4.9772189,22.8518519 5.04360788,22.6296296 5.10999686,22.4814815 C5.17638583,22.3333333 5.37555276,22.1851852 5.50833071,22.1111111 C5.70749764,22.1111111 5.8402756,22.1111111 5.97305355,22.2592593 L7.03527717,23.1481481 L6.90249921,21.7407407 C6.90249921,21.5185185 6.96888819,21.3703704 7.03527717,21.2222222 C7.16805512,21.0740741 7.30083307,21 7.5,21 C7.83194488,21 8.09750079,21.2962963 8.09750079,21.6666667 L8.09750079,21.8148148 L7.96472283,23.2222222 L9.02694645,22.4074074 C9.1597244,22.2592593 9.35889133,22.2592593 9.49166929,22.2592593 C9.69083621,22.2592593 9.82361417,22.4074074 9.89000314,22.6296296 C10.0227811,22.7777778 10.0227811,23 9.95639212,23.2222222 C9.89000314,23.3703704 9.75722519,23.5185185 9.62444724,23.5925926 L8.42944567,24.037037 L9.55805826,24.6296296 C9.75722519,24.7037037 9.89000314,24.8518519 9.95639212,25 Z" id="Path"></path>
                <path d="M16.9563921,25 C17.0227811,25.2222222 17.0227811,25.3703704 16.8900031,25.5925926 C16.8236142,25.7407407 16.6908362,25.8888889 16.4916693,25.8888889 C16.2925024,25.8888889 16.1597244,25.8888889 16.0269465,25.7407407 L14.9647228,24.8518519 L15.0975008,26.2592593 C15.0975008,26.4814815 15.0975008,26.6296296 14.9647228,26.7777778 C14.8319449,26.9259259 14.6991669,27 14.5,27 C14.3008331,27 14.1680551,26.9259259 14.0352772,26.7777778 C13.9024992,26.6296296 13.9024992,26.4074074 13.9024992,26.2592593 L14.0352772,24.8518519 L12.9730535,25.7407407 C12.8402756,25.8888889 12.6411087,25.8888889 12.5083307,25.8888889 C12.3091638,25.8148148 12.1763858,25.7407407 12.1099969,25.5925926 C11.9772189,25.4444444 11.9772189,25.2222222 12.0436079,25 C12.1099969,24.8518519 12.2427748,24.7037037 12.3755528,24.6296296 L13.5041654,24.037037 L12.3755528,23.4444444 C12.2427748,23.3703704 12.1099969,23.2222222 12.0436079,23 C11.9772189,22.8518519 12.0436079,22.6296296 12.1099969,22.4814815 C12.1763858,22.3333333 12.3755528,22.1851852 12.5083307,22.1111111 C12.7074976,22.1111111 12.8402756,22.1111111 12.9730535,22.2592593 L14.0352772,23.1481481 L13.9024992,21.7407407 C13.9024992,21.5185185 13.9688882,21.3703704 14.0352772,21.2222222 C14.1680551,21.0740741 14.3008331,21 14.5,21 C14.8319449,21 15.0975008,21.2962963 15.0975008,21.6666667 L15.0975008,21.8148148 L14.9647228,23.2222222 L16.0269465,22.4074074 C16.1597244,22.2592593 16.3588913,22.2592593 16.4916693,22.2592593 C16.6908362,22.2592593 16.8236142,22.4074074 16.8900031,22.6296296 C17.0227811,22.7777778 17.0227811,23 16.9563921,23.2222222 C16.8900031,23.3703704 16.7572252,23.5185185 16.6244472,23.5925926 L15.4958346,24.037037 L16.6244472,24.6296296 C16.8236142,24.7037037 16.9563921,24.8518519 16.9563921,25 Z" id="Path"></path>
                <path d="M23.9563921,25 C24.0227811,25.2222222 24.0227811,25.3703704 23.8900031,25.5925926 C23.8236142,25.7407407 23.6908362,25.8888889 23.4916693,25.8888889 C23.2925024,25.8888889 23.1597244,25.8888889 23.0269465,25.7407407 L21.9647228,24.8518519 L22.0975008,26.2592593 C22.0975008,26.4814815 22.0975008,26.6296296 21.9647228,26.7777778 C21.8319449,26.9259259 21.6991669,27 21.5,27 C21.3008331,27 21.1680551,26.9259259 21.0352772,26.7777778 C20.9024992,26.6296296 20.9024992,26.4074074 20.9024992,26.2592593 L21.0352772,24.8518519 L19.9730535,25.7407407 C19.7074976,25.962963 19.3755528,25.962963 19.1763858,25.6666667 L19.1099969,25.5925926 C18.9772189,25.4444444 18.9772189,25.2222222 19.0436079,25 C19.1099969,24.8518519 19.2427748,24.7037037 19.3755528,24.6296296 L20.5041654,24.037037 L19.3755528,23.4444444 C19.2427748,23.3703704 19.1099969,23.2222222 19.0436079,23 C18.9772189,22.8518519 19.0436079,22.6296296 19.1099969,22.4814815 C19.1763858,22.3333333 19.3755528,22.1851852 19.5083307,22.1111111 C19.7074976,22.1111111 19.8402756,22.1111111 19.9730535,22.2592593 L21.0352772,23.1481481 L20.9024992,21.7407407 C20.9024992,21.5185185 20.9688882,21.3703704 21.0352772,21.2222222 C21.1680551,21.0740741 21.3008331,21 21.5,21 C21.8319449,21 22.0975008,21.2962963 22.0975008,21.6666667 L22.0975008,21.8148148 L21.9647228,23.2222222 L23.0269465,22.4074074 C23.1597244,22.2592593 23.3588913,22.2592593 23.4916693,22.2592593 C23.6908362,22.2592593 23.8236142,22.4074074 23.8900031,22.6296296 C24.0227811,22.7777778 24.0227811,23 23.9563921,23.2222222 C23.8900031,23.3703704 23.7572252,23.5185185 23.6244472,23.5925926 L22.4958346,24.037037 L23.6244472,24.6296296 C23.8236142,24.7037037 23.9563921,24.8518519 23.9563921,25 Z" id="Path"></path>
                <path d="M30.9563921,25 C31.0227811,25.2222222 31.0227811,25.3703704 30.8900031,25.5925926 C30.8236142,25.7407407 30.6908362,25.8888889 30.4916693,25.8888889 C30.2925024,25.8888889 30.1597244,25.8888889 30.0269465,25.7407407 L28.9647228,24.8518519 L29.0975008,26.2592593 C29.0975008,26.4814815 29.0975008,26.6296296 28.9647228,26.7777778 C28.8319449,26.9259259 28.6991669,27 28.5,27 C28.3008331,27 28.1680551,26.9259259 28.0352772,26.7777778 C27.9024992,26.6296296 27.9024992,26.4074074 27.9024992,26.2592593 L28.0352772,24.8518519 L26.9730535,25.7407407 C26.7074976,25.962963 26.3755528,25.962963 26.1763858,25.6666667 L26.1099969,25.5925926 C25.9772189,25.4444444 25.9772189,25.2222222 26.0436079,25 C26.1099969,24.8518519 26.2427748,24.7037037 26.3755528,24.6296296 L27.5041654,24.037037 L26.3755528,23.4444444 C26.2427748,23.3703704 26.1099969,23.2222222 26.0436079,23 C25.9772189,22.8518519 26.0436079,22.6296296 26.1099969,22.4814815 C26.1763858,22.3333333 26.3755528,22.1851852 26.5083307,22.1111111 C26.7074976,22.1111111 26.8402756,22.1111111 26.9730535,22.2592593 L28.0352772,23.1481481 L27.9024992,21.7407407 C27.9024992,21.5185185 27.9688882,21.3703704 28.0352772,21.2222222 C28.1680551,21.0740741 28.3008331,21 28.5,21 C28.8319449,21 29.0975008,21.2962963 29.0975008,21.6666667 L29.0975008,21.8148148 L28.9647228,23.2222222 L30.0269465,22.4074074 C30.1597244,22.2592593 30.3588913,22.2592593 30.4916693,22.2592593 C30.6908362,22.2592593 30.8236142,22.4074074 30.8900031,22.6296296 C31.0227811,22.7777778 31.0227811,23 30.9563921,23.2222222 C30.8900031,23.3703704 30.7572252,23.5185185 30.6244472,23.5925926 L29.4958346,24.037037 L30.6244472,24.6296296 C30.8236142,24.7037037 30.9563921,24.8518519 30.9563921,25 Z" id="Path"></path>
                <path d="M37.25,28 L32.75,28 C32.3,28 32,27.6 32,27 C32,26.4 32.3,26 32.75,26 L37.25,26 C37.7,26 38,26.4 38,27 C38,27.6 37.7,28 37.25,28 Z" id="Path"></path>
                <path d="M27.3322641,14.4670051 C27.25688,14.7715736 26.9553436,15 26.6538072,15 L26.427655,15 L24.1661321,14.2385787 C23.9399798,14.1624365 23.7892116,14.0101523 23.6384434,13.7817259 C23.5630593,13.5532995 23.4876752,13.3248731 23.5630593,13.0964467 L24.2415162,10.7360406 C24.3169002,10.3553299 24.7692048,10.1269036 25.1461253,10.2030457 C25.5230458,10.3553299 25.7491981,10.7360406 25.5984299,11.1167513 L25.3722776,12.106599 C26.6538072,10.964467 27.4830323,9.2893401 27.4830323,7.6142132 C27.5584164,5.17766497 26.2015027,2.96954315 24.0153639,1.97969543 C23.336907,1.6751269 22.583066,1.52284264 21.9046092,1.52284264 L21.753841,1.52284264 C21.3015364,1.52284264 21,1.21827411 21,0.76142132 C21,0.304568528 21.3015364,0 21.753841,0 L21.9046092,0 C22.3569137,0 22.8092183,0.076142132 23.2615229,0.152284264 C23.7138275,0.228426396 24.1661321,0.38071066 24.6184366,0.609137056 C28.3876415,2.36040609 30.0460916,6.92893401 28.3122574,10.7364757 C27.8599528,11.8024656 27.1061118,12.7161711 26.2768868,13.4014503 L26.9553436,13.6298767 C27.1814959,13.7060189 27.4076482,14.0867295 27.3322641,14.4674402 L27.3322641,14.4670051 Z" id="Path"></path>
                <path d="M21,14.2544632 C21,14.6272316 20.6984636,15 20.246159,15 L20.0953908,15 C19.6430863,15 19.1907817,14.9254463 18.7384771,14.8508926 C18.2861725,14.776339 17.8338679,14.6272316 17.3815634,14.4035706 C13.6123585,12.688836 11.9539084,8.21561526 13.6877426,4.48750532 C14.2154313,3.44375382 14.9692723,2.474556 15.8738814,1.72901922 L15.0446564,1.4308045 C14.6677359,1.28169715 14.4415836,0.908928753 14.5923518,0.536160361 C14.6677359,0.163391969 15.1200405,-0.0602690664 15.496961,0.0142846121 L17.7584838,0.759821397 C17.9846361,0.834375075 18.1354043,0.983482432 18.2861725,1.20714347 C18.3615566,1.4308045 18.4369407,1.65446554 18.3615566,1.87812657 L17.6830998,4.1892906 C17.6077157,4.48750532 17.3061793,4.71116635 17.0046429,4.71116635 L16.7784906,4.71116635 C16.4015701,4.562059 16.1754178,4.1892906 16.326186,3.81652221 L16.4769542,3.22009279 C15.1954246,4.33839796 14.4415836,5.90402521 14.4415836,7.61875981 C14.3661995,10.0044775 15.7231132,12.1665342 17.909252,13.135732 C18.5877089,13.4339467 19.3415499,13.5830541 20.0200067,13.5830541 L20.246159,13.5830541 C20.6984636,13.5085004 21,13.8812688 21,14.2540372 L21,14.2544632 Z" id="Path"></path>
                <path d="M36.0892857,31 L6.91071429,31 C3.07142857,31 0,28.1111111 0,24.5 C0,20.8888889 3.07142857,18 6.91071429,18 L36.0892857,18 C39.9285714,18 43,20.8888889 43,24.5 C43,28.1111111 39.9285714,31 36.0892857,31 Z M6.91071429,19.4444444 C3.91607143,19.4444444 1.53571429,21.6833333 1.53571429,24.5 C1.53571429,27.3166667 3.91607143,29.5555556 6.91071429,29.5555556 L36.0892857,29.5555556 C39.0839286,29.5555556 41.4642857,27.3166667 41.4642857,24.5 C41.4642857,21.6833333 39.0839286,19.4444444 36.0892857,19.4444444 L6.91071429,19.4444444 Z" id="Shape"></path>
            </g>
        </g>
    </g>
</svg>