<?xml version="1.0" encoding="UTF-8"?>
<svg width="33px" height="33px" viewBox="0 0 33 33" version="1.1" xmlns="http://www.w3.org/2000/svg" xmlns:xlink="http://www.w3.org/1999/xlink">
    <title>Facebook</title>
    <g id="Page-1" stroke="none" stroke-width="1" fill="none" fill-rule="evenodd">
        <g id="Forgot-password-5" transform="translate(-1032.000000, -936.000000)">
            <g id="Facebook" transform="translate(1032.000000, 936.000000)">
                <circle id="Oval" fill="#FFFFFF" cx="16.5" cy="16.5" r="16.5"></circle>
                <g id="1920524_facebook_facebook-icon_logo_network_icon" transform="translate(13.000000, 9.000000)" fill="#037BFF" fill-rule="nonzero">
                    <path d="M8,5.18124208 L5.27636364,5.18124208 L5.27636364,3.5217575 C5.27636364,2.89649345 5.72,2.75116181 6.03272727,2.75116181 C6.34545455,2.75116181 7.95636364,2.75116181 7.95636364,2.75116181 L7.95636364,0.010139417 L5.30909091,0 C2.37090909,0 1.70181818,2.04478243 1.70181818,3.35276722 L1.70181818,5.18124208 L0,5.18124208 L0,8.00675961 L1.69818182,8.00675961 C1.69818182,11.6332911 1.69818182,16 1.69818182,16 L5.27272727,16 C5.27272727,16 5.27272727,11.5893536 5.27272727,8.00675961 L7.68363636,8.00675961 L8,5.18124208 Z" id="Path"></path>
                </g>
            </g>
        </g>
    </g>
</svg>