<?xml version="1.0" encoding="UTF-8"?>
<svg width="43px" height="35px" viewBox="0 0 43 35" version="1.1" xmlns="http://www.w3.org/2000/svg" xmlns:xlink="http://www.w3.org/1999/xlink">
    <title>AB268B81-AFA9-4B1C-8955-36F433F21D31</title>
    <g id="Page-1" stroke="none" stroke-width="1" fill="none" fill-rule="evenodd" opacity="0.400000006">
        <g id="Style-sheet-RBL" transform="translate(-197.000000, -894.000000)" fill="#000000" fill-rule="nonzero">
            <g id="noun-login-4814592" transform="translate(197.000000, 894.000000)">
                <path d="M24.0950301,15.5226031 C23.743728,14.9029636 23.18773,14.4285372 22.5254736,14.1834991 C21.8631909,13.9388336 21.1366597,13.9388336 20.4744032,14.1834991 C19.8121205,14.4285106 19.2560963,14.9029459 18.9048467,15.5226031 L10.4004066,30.4431348 C10.0484221,31.0627742 9.92300457,31.7880941 10.0460251,32.4919798 C10.1693955,33.196176 10.5333391,33.8334792 11.074316,34.2919719 C11.6149429,34.7508106 12.2980469,35.001367 13.0030832,34.9999887 L29.9969161,34.9999887 C30.7019174,35.0013692 31.3850301,34.7508106 31.9256833,34.2919719 C32.4666515,33.8334792 32.8306213,33.1961317 32.9539742,32.4919798 C33.0769947,31.7881296 32.9515822,31.0628275 32.5995927,30.4431348 L24.0950301,15.5226031 Z M31.2639343,32.7054344 L31.2635926,32.705781 C31.1364691,32.9324279 30.9519296,33.1202609 30.7294569,33.2505605 C30.5066431,33.3808689 30.2537608,33.4487912 29.9967756,33.4470849 L13.0029427,33.4470849 C12.480425,33.4456661 11.9979226,33.1621888 11.7367819,32.7030041 C11.4756411,32.2438194 11.4753524,31.6785816 11.7360983,31.2190243 L20.2330148,16.2984926 C20.4035393,15.9949097 20.6748807,15.7623719 20.9985028,15.642124 C21.3221248,15.5222133 21.67753,15.5222133 22.0011608,15.642124 C22.3247828,15.7623808 22.5961243,15.9949186 22.7666487,16.2984926 L31.2635652,31.2190243 C31.3934269,31.4446332 31.4617697,31.7010804 31.4617697,31.9623804 C31.4617697,32.2236805 31.3934226,32.4801277 31.2635652,32.7057366 L31.2639343,32.7054344 Z" id="Shape"></path>
                <path d="M22,29 C22.2651771,29 22.5196457,28.9180551 22.7071429,28.7722222 C22.89464,28.6263893 23,28.4284711 23,28.2222222 L23,22.7777778 C23,22.3482667 22.5522286,22 22,22 C21.4477714,22 21,22.3482667 21,22.7777778 L21,28.2222222 C21,28.4284711 21.1053577,28.6263911 21.2928571,28.7722222 C21.4803566,28.9180533 21.7348229,29 22,29 Z" id="Path"></path>
                <path d="M21.9999874,30 C21.5957507,30 21.2309853,30.2437324 21.0761805,30.6173606 C20.9213854,30.9909888 21.0068283,31.4213294 21.2930466,31.7071668 C21.5788892,31.9930435 22.0091784,32.0784995 22.3827228,31.9240587 C22.7563065,31.7692452 23,31.4044265 23,31.0001417 C23,30.4475573 22.5520841,30 21.9999776,30 L21.9999874,30 Z" id="Path"></path>
                <path d="M39.6252296,0 L3.37477041,0 C2.48011445,0.00100446658 1.62205206,0.348541933 0.989606207,0.966581589 C0.356818108,1.58431268 0.000965298242,2.42232529 0,3.2962515 L0,14.7037485 C0.00102839365,15.577589 0.356844434,16.4156873 0.989606207,17.0334184 C1.62205206,17.6514838 2.48002669,17.9990572 3.37477041,18 L15.3567542,18 C15.7807834,18 16.1246051,17.6641778 16.1246051,17.2500143 C16.1246051,16.8358507 15.7807834,16.5000286 15.3567542,16.5000286 L3.37477041,16.5000286 C2.88732112,16.4990241 2.42009045,16.3095151 2.07556673,15.9726986 C1.73071832,15.6362079 1.53670215,15.1798566 1.53567542,14.7037228 L1.53567542,3.29622579 C1.53670382,2.82011771 1.7307271,2.36375783 2.07556673,2.02724996 C2.4200729,1.69042494 2.8872948,1.50092284 3.37477041,1.49992 L39.6252296,1.49992 C40.1126789,1.50092447 40.5799096,1.69043352 40.9244333,2.02724996 C41.2692817,2.36374069 41.4632979,2.820092 41.4643246,3.29622579 L41.4643246,14.7037228 C41.4632962,15.1798309 41.2692729,15.6361907 40.9244333,15.9726986 C40.5799271,16.3095236 40.1127052,16.4990257 39.6252296,16.5000286 L27.6432458,16.5000286 C27.2192166,16.5000286 26.8753949,16.8358507 26.8753949,17.2500143 C26.8753949,17.6641778 27.2192166,18 27.6432458,18 L39.6252296,18 C40.5198856,17.9989955 41.3779479,17.6514581 42.0103938,17.0334184 C42.6431819,16.4156873 42.9990347,15.5776747 43,14.7037485 L43,3.2962515 C42.9989716,2.422411 42.6431556,1.58431268 42.0103938,0.966581589 C41.3779479,0.348516219 40.5199733,0.000942839184 39.6252296,0 Z" id="Path"></path>
                <path d="M13.7973641,5.20264435 C13.5259225,4.93245188 13.0868976,4.93245188 12.815456,5.20264435 L10.5205166,7.49384776 L8.22557718,5.20232596 L8.22557718,5.20263686 C7.94916083,4.96601847 7.5375013,4.98188218 7.28004494,5.23901514 C7.02290698,5.4964641 7.00705127,5.90812454 7.24366675,6.18454946 L9.53486511,8.47949394 L7.24334836,10.7744384 L7.24365927,10.7744384 C7.09627754,10.9006715 7.00829107,11.0825669 7.00051445,11.2765849 C6.99305223,11.4702925 7.06705273,11.6587148 7.20417122,11.7958288 C7.34129289,11.9329508 7.52970684,12.0069443 7.723414,11.999486 C7.91743157,11.9917129 8.09932654,11.9037227 8.22555935,11.7563407 L10.5204988,9.46513726 L12.8154382,11.7566591 L12.8154382,11.7563482 C13.0918545,11.9929666 13.5035141,11.9771028 13.7609704,11.7199699 C14.0181084,11.4625209 14.0339641,11.0508605 13.7973486,10.7744356 L11.5061503,8.47949108 L13.797667,6.1845466 L13.7973561,6.1845466 C14.067548,5.91310446 14.067548,5.47407852 13.7973561,5.20263639 L13.7973641,5.20264435 Z" id="Path"></path>
                <path d="M18.2048754,11.7951268 C18.4793029,12.0682911 18.9231572,12.0682911 19.1975847,11.7951268 L21.5177689,9.47872222 L23.8379532,11.7954486 L23.8379532,11.7951343 C24.1174101,12.0343553 24.533598,12.0183171 24.7938865,11.7583559 C25.053853,11.4980753 25.0698831,11.0818869 24.8306648,10.8024216 L22.5142628,8.48223484 L24.8309867,6.16204809 L24.8306724,6.16204809 C25.0698931,5.88259081 25.0538549,5.46640248 24.793894,5.20611377 C24.5336136,4.94614695 24.1174258,4.93011681 23.8379607,5.16933537 L21.5177765,7.4857399 L19.1975922,5.16901348 L19.1975922,5.1693278 C18.9181353,4.93010683 18.5019474,4.94614502 18.241659,5.20610621 C17.9816924,5.46638687 17.9656623,5.8825752 18.2048806,6.16204053 L20.5212826,8.48222728 L18.2045587,10.802414 L18.204873,10.802414 C17.931709,11.0768418 17.931709,11.5206966 18.204873,11.7951243 L18.2048754,11.7951268 Z" id="Path"></path>
                <path d="M29.2048754,11.7951268 C29.4793029,12.0682911 29.9231572,12.0682911 30.1975847,11.7951268 L32.5177689,9.47872222 L34.8379532,11.7954486 L34.8379532,11.7951343 C35.1174101,12.0343553 35.533598,12.0183171 35.7938865,11.7583559 C36.053853,11.4980753 36.0698831,11.0818869 35.8306648,10.8024216 L33.5142628,8.48223484 L35.8309867,6.16204809 L35.8306724,6.16204809 C36.0698931,5.88259081 36.0538549,5.46640248 35.793894,5.20611377 C35.5336136,4.94614695 35.1174258,4.93011681 34.8379607,5.16933537 L32.5177765,7.4857399 L30.1975922,5.16901348 L30.1975922,5.1693278 C29.9181353,4.93010683 29.5019474,4.94614502 29.241659,5.20610621 C28.9816924,5.46638687 28.9656623,5.8825752 29.2048806,6.16204053 L31.5212826,8.48222728 L29.2045587,10.802414 L29.204873,10.802414 C28.931709,11.0768418 28.931709,11.5206966 29.204873,11.7951243 L29.2048754,11.7951268 Z" id="Path"></path>
            </g>
        </g>
    </g>
</svg>