<?xml version="1.0" encoding="UTF-8"?>
<svg width="16px" height="16px" viewBox="0 0 16 16" version="1.1" xmlns="http://www.w3.org/2000/svg" xmlns:xlink="http://www.w3.org/1999/xlink">
    <title>1E268011-BBCA-491B-986F-A8913B54F192</title>
    <g id="Page-1" stroke="none" stroke-width="1" fill="none" fill-rule="evenodd">
        <g id="Style-sheet-RBL" transform="translate(-212.000000, -1066.000000)" fill="#3F9B1B" fill-rule="nonzero">
            <g id="noun-check-3496109" transform="translate(212.000000, 1066.000000)">
                <path d="M8,16 C10.1216678,16 12.1566861,15.1570991 13.6568459,13.6568459 C15.1570991,12.1564679 16,10.1216678 16,8 C16,5.87833215 15.1570991,3.84331388 13.6568459,2.34315414 C12.1564679,0.842900891 10.1216678,0 8,0 C5.87833215,0 3.84331388,0.842900891 2.34315414,2.34315414 C0.842900891,3.84353206 0,5.87833215 0,8 C0,10.1216678 0.842900891,12.1566861 2.34315414,13.6568459 C3.84353206,15.1570991 5.87833215,16 8,16 Z M3.84736584,8.21088886 C3.98360827,8.07549734 4.1679381,7.99940156 4.36006327,7.99940156 C4.55231312,7.99940156 4.73652139,8.07549734 4.87288538,8.21088886 L6.54553388,9.88366204 L10.7564539,5.67274201 C10.9437105,5.51239354 11.1993953,5.45784794 11.435718,5.52773488 C11.6721623,5.59762181 11.856997,5.78256567 11.9268777,6.01889459 C11.9968862,6.25533885 11.9422188,6.51102055 11.7818706,6.69828337 L7.0544817,11.4256723 L7.05460348,11.4255505 C6.91823949,11.5610636 6.73403122,11.6370378 6.54178137,11.6370378 C6.34965307,11.6370378 6.16532324,11.5610636 6.02908393,11.4255505 L3.84726008,9.24372668 C3.70955583,9.10724113 3.6321229,8.92131545 3.6321229,8.72738248 C3.6321229,8.53354925 3.70955894,8.34762046 3.84726008,8.21103828 L3.84736584,8.21088886 Z" id="Shape"></path>
            </g>
        </g>
    </g>
</svg>