<?xml version="1.0" encoding="UTF-8"?>
<svg width="198px" height="301px" viewBox="0 0 198 301" version="1.1" xmlns="http://www.w3.org/2000/svg" xmlns:xlink="http://www.w3.org/1999/xlink">
    <title>B199E99F-4EC6-4316-9DCA-23207AF45936</title>
    <defs>
        <linearGradient x1="49.9998159%" y1="0.000360805667%" x2="49.9998159%" y2="99.9998433%" id="linearGradient-1">
            <stop stop-color="#004E8F" offset="0%"></stop>
            <stop stop-color="#00354F" offset="100%"></stop>
        </linearGradient>
        <linearGradient x1="27.7845908%" y1="85.7503459%" x2="68.49977%" y2="-3.45761199%" id="linearGradient-2">
            <stop stop-color="#0086FD" offset="0%"></stop>
            <stop stop-color="#00B9FB" offset="100%"></stop>
        </linearGradient>
        <linearGradient x1="-7.49844099e-05%" y1="49.9995994%" x2="99.9996142%" y2="49.9995994%" id="linearGradient-3">
            <stop stop-color="#004E8F" offset="0%"></stop>
            <stop stop-color="#00354F" offset="100%"></stop>
        </linearGradient>
        <linearGradient x1="43.1148895%" y1="89.2040277%" x2="89.0163889%" y2="5.80982752%" id="linearGradient-4">
            <stop stop-color="#0086FD" offset="0%"></stop>
            <stop stop-color="#00B9FB" offset="100%"></stop>
        </linearGradient>
        <linearGradient x1="18.5052444%" y1="96.7294092%" x2="59.643105%" y2="32.2152448%" id="linearGradient-5">
            <stop stop-color="#0086FD" offset="0%"></stop>
            <stop stop-color="#00B9FB" offset="100%"></stop>
        </linearGradient>
    </defs>
    <g id="Page-1" stroke="none" stroke-width="1" fill="none" fill-rule="evenodd">
        <g id="Style-sheet-RBL" transform="translate(-767.000000, -875.000000)">
            <g id="Group-118-Copy" transform="translate(767.000000, 875.000000)">
                <path d="M93.98488,73 L93.98488,94 L47.98488,94" id="Stroke-1" stroke="#EFEFEF" stroke-width="2.06569054" stroke-linecap="round" stroke-linejoin="round" stroke-dasharray="5.508507810320173"></path>
                <path d="M133.98488,141.14 L133.98488,154.997243 L164.98488,155 L164.98488,100" id="Stroke-2" stroke="#EFEFEF" stroke-width="2.06569054" stroke-linecap="round" stroke-linejoin="round" stroke-dasharray="5.508507810320173"></path>
                <line x1="106.98488" y1="66" x2="108.98488" y2="66" id="Stroke-3" stroke="#EFEFEF" stroke-width="2.06569054" stroke-linecap="round" stroke-linejoin="round"></line>
                <polyline id="Stroke-4" stroke="#EFEFEF" stroke-width="2.06569054" stroke-linecap="round" stroke-linejoin="round" points="111.98488 66 113.98488 66 113.98488 68"></polyline>
                <path d="M113.98488,72 L113.98488,94.6678269 L113.98488,113" id="Stroke-5" stroke="#EFEFEF" stroke-width="2.06569054" stroke-linecap="round" stroke-linejoin="round" stroke-dasharray="5.393518175397601,5.393518175397601"></path>
                <polyline id="Stroke-6" stroke="#EFEFEF" stroke-width="2.06569054" stroke-linecap="round" stroke-linejoin="round" points="113.98488 115 113.98488 117 115.98488 117"></polyline>
                <line x1="121.98488" y1="117" x2="129.98488" y2="117" id="Stroke-7" stroke="#EFEFEF" stroke-width="2.06569054" stroke-linecap="round" stroke-linejoin="round" stroke-dasharray="6.779595974513463,6.779595974513463"></line>
                <polyline id="Stroke-8" stroke="#EFEFEF" stroke-width="2.06569054" stroke-linecap="round" stroke-linejoin="round" points="131.98488 117 133.98488 117 133.98488 119"></polyline>
                <line x1="133.98488" y1="122" x2="133.98488" y2="124" id="Stroke-9" stroke="#EFEFEF" stroke-width="2.06569054" stroke-linecap="round" stroke-linejoin="round"></line>
                <path d="M36.6031921,19.3799568 L36.5976641,14.6947351 C39.5241813,14.5344148 42.35617,13.7499511 44.9366351,12.3982854 C46.0090649,14.546577 46.6646843,16.909919 46.8200208,19.3694531 L36.6031921,19.3799568 Z M36.6098257,26.2952889 L36.6048505,21.6178067 L46.830524,21.6084086 C46.6834795,24.0696012 46.0350464,26.436813 44.9692502,28.5933971 C42.3932075,27.2511294 39.5429765,26.4539507 36.6098257,26.2952889 L36.6098257,26.2952889 Z M36.6120369,28.5558047 C39.1504893,28.7105967 41.6192891,29.3817305 43.8575717,30.5338252 C42.53196,32.5483323 40.8066747,34.3140666 38.7353374,35.6977964 C38.0609227,36.1483517 37.348365,36.5358845 36.6203289,36.8919061 L36.6120369,28.5558047 Z M34.3737543,28.558016 L34.3814935,36.9112551 C31.4096467,35.4600802 28.9308966,33.2343925 27.1508842,30.5421176 C29.3819805,29.3911286 31.8441466,28.7183363 34.3737543,28.558016 L34.3737543,28.558016 Z M24.1508448,21.6310746 L34.3665679,21.6194652 L34.3709903,26.3057926 C31.4450259,26.4672185 28.6141428,27.2500237 26.0336777,28.6027951 C24.9623535,26.4539507 24.3067341,24.089503 24.1508448,21.6310746 L24.1508448,21.6310746 Z M34.3593815,14.7052388 L34.3643567,19.3816153 L24.1408944,19.3921191 C24.2879389,16.9309265 24.9352664,14.562609 26.0010626,12.4054721 C28.5771053,13.7482926 31.4273363,14.5454714 34.3593815,14.7052388 L34.3593815,14.7052388 Z M34.3566175,12.444723 C31.8198235,12.2888253 29.3510237,11.6171387 27.1138467,10.465044 C28.4394584,8.45108969 30.1641909,6.6859082 32.236081,5.30107274 C32.9104957,4.85051749 33.6219478,4.46409035 34.3488783,4.10751595 L34.3566175,12.444723 Z M36.5860553,4.08871978 C39.5595605,5.54044749 42.0394162,7.76447666 43.8194286,10.4573044 C41.5883323,11.6082934 39.1250606,12.2821914 36.5954529,12.4419588 L36.5860553,4.08871978 Z M53.690758,19.3628191 L49.0571979,19.3677946 C48.8957806,16.5030372 48.1323653,13.7510568 46.8670087,11.2622227 C47.8625995,10.5921946 48.8023576,9.83481949 49.666935,8.99949558 C52.0688461,11.9510471 53.4558185,15.5449853 53.690758,19.3628191 L53.690758,19.3628191 Z M46.8603751,6.22319072 C47.1804457,6.47749185 47.4828267,6.75501177 47.7857605,7.03142603 C47.905165,7.14088608 48.028992,7.24537067 48.1467381,7.35759486 C47.3982484,8.08345872 46.5834229,8.72639829 45.7293487,9.30742107 C43.8857644,6.4902069 41.363896,4.12465364 38.3450614,2.4844114 C41.363896,2.96813636 44.2262885,4.19486286 46.6469948,6.06508176 C46.717753,6.12036462 46.7918281,6.16790787 46.8603751,6.22319072 L46.8603751,6.22319072 Z M24.1646647,6.17841161 C24.606351,5.82957681 25.0613045,5.49953818 25.5306307,5.19437684 C25.5356059,5.19161269 25.5394755,5.18884855 25.5433451,5.18719006 C26.0115658,4.88313438 26.4941592,4.60340314 26.986703,4.34523222 C27.0265045,4.32422473 27.066306,4.30321725 27.1061075,4.28220977 C28.6080621,3.507697 30.2117316,2.94325908 31.870681,2.60603367 C31.9552592,2.58889599 32.0403902,2.57452245 32.1255213,2.55849042 C32.2736714,2.53084899 32.4245855,2.51702828 32.5738411,2.492151 C32.0343095,2.78625577 31.5041753,3.09805106 30.9928364,3.44025192 C28.6417828,5.01028494 26.6892972,7.0192638 25.1950818,9.31073804 C24.3470884,8.73358506 23.5350268,8.09506811 22.7904068,7.37639103 C23.1895275,6.98996389 23.6096547,6.62564989 24.0408378,6.2790264 C24.0817449,6.24585669 24.122652,6.21158132 24.1646647,6.17841161 L24.1646647,6.17841161 Z M21.2801602,9.02437287 C22.1469489,9.85527414 23.0828374,10.6010398 24.0712417,11.2611171 C22.8069907,13.7643247 22.0546315,16.5240447 21.9015062,19.3937775 L17.2579957,19.398753 C17.4868544,15.5665457 18.9125227,11.9532584 21.2801602,9.02437287 L21.2801602,9.02437287 Z M17.2823188,21.6377085 L21.9131149,21.6332859 C22.0756378,24.4969377 22.8379475,27.2494709 24.1033041,29.7371993 C23.1104773,30.4061218 22.1751416,31.1607327 21.3116698,31.9910812 C18.9854921,29.1268766 17.5249975,25.5462062 17.2823188,21.6377085 L17.2823188,21.6377085 Z M31.9679736,38.4155015 C31.5185481,38.3270489 31.076309,38.2104021 30.6357283,38.088227 C30.5141126,38.0545045 30.3886272,38.0296272 30.2670115,37.9931405 C29.8336172,37.8643314 29.407962,37.7073281 28.9850709,37.5459022 C28.8584799,37.4972533 28.729125,37.4574496 28.6047453,37.4060366 C28.2255252,37.2523503 27.8568084,37.072681 27.4880915,36.8930117 C27.3228047,36.8111931 27.1519898,36.7387726 26.9883614,36.6514257 C26.6837692,36.492211 26.3907858,36.3114361 26.0950384,36.1339782 C25.8766828,36.0012993 25.6533521,35.8769129 25.4416301,35.7364944 C25.2133242,35.5872307 24.9988382,35.4208294 24.7771659,35.2605091 C24.5118224,35.0681248 24.2442678,34.8796102 23.9894275,34.6734052 C23.8269046,34.5407263 23.6737793,34.3958853 23.5151261,34.2587838 C23.2823977,34.0553429 23.0524334,33.8502435 22.8302083,33.6362989 C23.5770395,32.9131992 24.3885483,32.2713652 25.2398585,31.6920009 C27.085654,34.5097679 29.6075224,36.8747684 32.6274626,38.5161163 C32.6047979,38.5122465 32.5815803,38.5094823 32.5611268,38.5056125 C32.3632248,38.4746541 32.1614532,38.4530938 31.9679736,38.4155015 L31.9679736,38.4155015 Z M46.8565056,34.7812067 C46.4524096,35.1024001 46.038916,35.4108784 45.6093913,35.6977964 C43.4098046,37.1677675 40.9382408,38.1247137 38.3478253,38.533254 C38.9044938,38.2319624 39.4517647,37.910769 39.978582,37.5580644 L39.9802404,37.5580644 C42.3290828,35.9874786 44.2810156,33.9796054 45.775231,31.6892368 C46.6232244,32.265837 47.4341804,32.9038011 48.1810116,33.6219253 C47.8122948,33.9784997 47.4264412,34.3151723 47.03119,34.6391298 C46.9731461,34.6861202 46.9151022,34.7336635 46.8565056,34.7812067 L46.8565056,34.7812067 Z M49.6901526,31.9750491 C48.8233639,31.1447007 47.888581,30.398935 46.8990711,29.7371993 C48.1622165,27.2356502 48.9156813,24.4753774 49.0688066,21.6056445 L53.7123171,21.600669 C53.4823528,25.4345349 52.0583429,29.0472693 49.6901526,31.9750491 L49.6901526,31.9750491 Z M55.98488,20.4795328 L55.98488,20.4795328 C55.9787925,15.3210898 54.0611332,10.4700195 50.6006123,6.68867234 C50.5773947,6.65716112 50.5663388,6.62012161 50.5392516,6.58971604 C50.4004991,6.44045233 50.2562186,6.29892823 50.1147021,6.15463999 C50.062739,6.10101562 50.0179623,6.0424158 49.9654464,5.98879143 C49.9350425,5.96059717 49.9029801,5.93571989 49.8742346,5.90752563 C49.4894866,5.52828527 49.0892602,5.16894672 48.6779778,4.82398172 C48.5442005,4.71065187 48.410976,4.59787486 48.2738819,4.48786198 C47.9129042,4.20039114 47.5425289,3.92674102 47.1644145,3.6647003 C46.9493758,3.5154366 46.7326786,3.3700427 46.514323,3.22962425 C46.1881717,3.0212079 45.857598,2.82274246 45.5214963,2.63422793 C45.2390161,2.47501331 44.9521134,2.3235383 44.6635524,2.17814439 C44.5435951,2.11843891 44.4219793,2.06426172 44.302022,2.00732038 C43.8039502,1.77015694 43.301456,1.54957836 42.7873531,1.35387706 C42.5994015,1.28145652 42.4075802,1.21677559 42.2174174,1.14988334 C41.7934207,1.0039366 41.36666,0.866282301 40.9327129,0.747424168 C40.5733936,0.647362205 40.2113103,0.557251155 39.8464631,0.477643847 C39.6043372,0.42401948 39.3600001,0.376476227 39.1145574,0.332802773 C38.607088,0.241586066 38.0968547,0.161978758 37.5821989,0.10890722 C37.4926455,0.100061963 37.4014337,0.0950865066 37.3113275,0.0878997357 C36.7060127,0.0326168831 36.0962755,0 35.48488,0 L35.462768,0 C31.4013547,0.00386979969 27.4748244,1.19410962 24.1093849,3.44246323 C18.3906805,7.2652725 14.9793587,13.6493363 14.98488,20.5209949 C14.9904147,25.8165394 17.0319009,30.6322287 20.3442718,34.2703932 C20.3746757,34.3157251 20.3918125,34.3682438 20.4299556,34.4091532 C21.0551711,35.0858153 21.7268217,35.7110643 22.4310875,36.2915343 C22.4548578,36.3114361 22.4786282,36.3313379 22.5035041,36.3512398 C22.9689608,36.7326914 23.4498958,37.0909243 23.9457564,37.4287026 C24.0198314,37.4801156 24.0961177,37.5298702 24.1701927,37.5790719 C24.6317798,37.8853389 25.1033172,38.1722569 25.5859106,38.4381675 C25.7130544,38.5083767 25.8407509,38.5752689 25.9701059,38.642714 C26.4239537,38.8809831 26.8855408,39.10709 27.3581838,39.3105309 C27.5184955,39.3807401 27.6810184,39.4426569 27.8435412,39.5084435 C28.3095507,39.6964052 28.7788769,39.8722047 29.2576007,40.0253382 C29.4173596,40.0767512 29.5787769,40.119319 29.7401941,40.1657566 C30.2327379,40.3100448 30.7285985,40.441618 31.2321983,40.5494196 C31.3615532,40.5765082 31.4925666,40.5991742 31.6219215,40.6240514 C32.1979379,40.73517 32.7767183,40.8269395 33.3610267,40.8883035 C33.412437,40.8938318 33.4632945,40.8965959 33.514152,40.9015714 C34.1730883,40.9656995 34.8375525,41.0010805 35.5047808,41 C36.5213779,40.999422 37.5285774,40.9242373 38.5208514,40.7760793 C38.60156,40.7644699 38.6806103,40.7445681 38.7613189,40.7324058 C39.1742597,40.6655136 39.5866476,40.5936459 39.9935076,40.5024292 C42.433009,39.9551289 44.7564226,38.9628017 46.8603751,37.556406 C52.5807378,33.7341495 55.9904013,27.3506385 55.98488,20.4795328 L55.98488,20.4795328 Z" id="Fill-10" fill="#004C8B" opacity="0.100000001"></path>
                <g id="Group-14" transform="translate(33.480436, 53.304080)">
                    <polygon id="Fill-12" points="5.44166667 5.2164 0 5.2164 4.40277778 8.44088 2.72166667 13.65728 7.12444444 10.43336 11.5266667 13.65728 9.84388889 8.44088 14.2466667 5.2164 8.80555556 5.2164 7.12444444 0"></polygon>
                </g>
                <g id="Group-17" transform="translate(33.453769, 120.269920)">
                    <polygon id="Fill-15" points="7.12277778 3.22392 2.72 0 4.40277778 5.2164 0 8.44144 5.44166667 8.44144 7.12277778 13.65672 8.805 8.44144 14.2466667 8.44144 9.84388889 5.2164 11.525 0"></polygon>
                </g>
                <g id="Group-20" transform="translate(67.504495, 86.227222)">
                    <polygon id="Fill-18" points="5.01630769 4.40277778 0 2.72055556 3.101 7.12388889 0 11.5261111 5.01630769 9.84444444 8.11569231 14.2466667 8.11569231 8.805 13.1303846 7.12388889 8.11569231 5.44166667 8.11569231 0"></polygon>
                </g>
                <g id="Group-23" transform="translate(0.000000, 86.200000)">
                    <polygon id="Fill-21" points="5.21696 5.44166667 0 7.12277778 5.21696 8.805 5.21696 14.2466667 8.44032 9.84388889 13.65784 11.5255556 10.43224 7.12277778 13.65784 2.72055556 8.44032 4.40222222 5.21696 0"></polygon>
                </g>
                <g id="Group-26" transform="translate(56.509880, 64.353231)">
                    <polygon id="Fill-24" points="4.84944444 5.21015385 0 7.60415385 5.37722222 8.42907692 6.22722222 13.6381538 8.69833333 8.939 14.0727778 9.76392308 10.2244444 6.03561538 12.6938889 1.33538462 7.84666667 3.72992308 3.99833333 0"></polygon>
                </g>
                <g id="Group-29" transform="translate(10.040880, 109.230462)">
                    <polygon id="Fill-27" points="5.20907692 4.69915385 0 3.87476923 3.72992308 7.60361538 1.33646154 12.3033077 6.03507692 9.90876923 9.765 13.6386923 8.939 8.42961538 13.6392308 6.034 8.42853846 5.21015385 7.60469231 0"></polygon>
                </g>
                <g id="Group-32" transform="translate(56.490991, 109.250385)">
                    <polygon id="Fill-30" points="5.37444444 5.20907692 0 6.03346154 4.84944444 8.428 3.99777778 13.6376154 7.84666667 9.90715385 12.6938889 12.3022308 10.2238889 7.60253846 14.0711111 3.87315385 8.69611111 4.69807692 6.22666667 0"></polygon>
                </g>
                <g id="Group-35" transform="translate(10.061342, 64.334923)">
                    <polygon id="Fill-33" points="6.03453846 3.72830769 1.33430769 1.33484615 3.72776923 6.034 0 9.76392308 5.20907692 8.93792308 7.60253846 13.6381538 8.428 8.42853846 13.6376154 7.60307692 8.93738462 5.20961538 9.76284615 0"></polygon>
                </g>
                <g id="Group-57" transform="translate(88.513754, 49.499146)">
                    <path d="M14.1086291,8.38544107 C14.1097307,8.33194872 14.1185435,8.30028999 14.1168911,8.25880613 C14.1141371,7.55139718 14.1328641,6.84016735 14.1058752,6.13057504 C14.0921053,5.74521183 14.0485924,5.35493606 13.9549572,4.97994382 C13.3050184,2.41394886 10.7823745,0.81900368 8.14791922,1.29006381 C5.88414933,1.69671478 4.15410037,3.62243915 4.04283966,5.8953179 C4.00263158,6.69824889 4.02851897,7.50718412 4.02741738,8.31066096 C4.02851897,8.33959049 4.0373317,8.36742834 4.04283966,8.39963291 C7.39553244,8.39472035 10.7443696,8.38762443 14.1086291,8.38544107 L14.1086291,8.38544107 Z M9.06609547,9.5972064 C6.79406365,9.60321064 4.51652387,9.60430232 2.24063647,9.60866904 C1.59345165,9.60866904 1.20624235,9.99785313 1.20624235,10.6381237 C1.2123011,14.2122856 1.21780906,17.788085 1.22276622,21.3611552 C1.22386781,22.0199844 1.61383109,22.4009809 2.28249694,22.4009809 C6.79902081,22.3922474 11.3149939,22.3856973 15.8337209,22.3775097 C15.8921053,22.3775097 15.9499388,22.3775097 16.0072215,22.3753264 C16.5547124,22.3665929 16.9650551,21.9626712 16.9650551,21.423381 C16.9584455,17.7919059 16.9529376,14.1609766 16.9441248,10.5305932 C16.9441248,10.1610594 16.7750306,9.8657598 16.4373929,9.70364524 C16.2771114,9.62613593 16.0771726,9.591748 15.8932069,9.591748 C13.6178703,9.58847295 11.3408813,9.59556888 9.06609547,9.5972064 L9.06609547,9.5972064 Z M15.324235,8.38762443 L15.9543452,8.38762443 C17.2079559,8.38926195 18.1514688,9.31719036 18.1569767,10.5600686 C18.1619339,14.176806 18.1674419,17.7962726 18.1729498,21.4080975 C18.1729498,22.6384214 17.2250306,23.5745374 15.9769278,23.5789041 C14.2727662,23.5843625 12.5691554,23.5854542 10.8638923,23.5892751 C7.99259486,23.5936418 5.1130355,23.5980085 2.24063647,23.6002041 C1.18200734,23.6034669 0.315605875,22.9479128 0.0798653611,21.9604878 C0.038004896,21.792369 0.0187270502,21.607875 0.0187270502,21.4348437 C0.00771113831,17.8230188 0.00275397797,14.2101023 0,10.5977316 C0,9.67471571 0.430171359,9.00879062 1.26682987,8.60104796 C1.56646267,8.4536711 1.89143207,8.40127043 2.22576499,8.40782052 C2.41578947,8.40945804 2.60966952,8.40782052 2.81952264,8.40782052 L2.81952264,8.24024756 C2.81952264,7.57595999 2.81787026,6.91058074 2.81787026,6.24138061 C2.81401469,3.18685863 4.96046512,0.639422241 7.99920441,0.0952195232 C11.2973684,-0.494287934 14.5718482,1.71691087 15.194798,4.97121038 C15.2735618,5.37949887 15.3044064,5.79652082 15.3154223,6.2140886 C15.3369033,6.87728449 15.3209302,7.5448471 15.324235,8.21404723 L15.324235,8.38762443 Z" id="Fill-39" fill="#EFEFEF"></path>
                    <path d="M14.1086291,8.38544107 C14.1097307,8.33194872 14.1185435,8.30028999 14.1168911,8.25880613 C14.1141371,7.55139718 14.1328641,6.84016735 14.1058752,6.13057504 C14.0921053,5.74521183 14.0485924,5.35493606 13.9549572,4.97994382 C13.3050184,2.41394886 10.7823745,0.81900368 8.14791922,1.29006381 C5.88414933,1.69671478 4.15410037,3.62243915 4.04283966,5.8953179 C4.00263158,6.69824889 4.02851897,7.50718412 4.02741738,8.31066096 C4.02851897,8.33959049 4.0373317,8.36742834 4.04283966,8.39963291 C7.39553244,8.39472035 10.7443696,8.38762443 14.1086291,8.38544107 Z M9.06609547,9.5972064 C6.79406365,9.60321064 4.51652387,9.60430232 2.24063647,9.60866904 C1.59345165,9.60866904 1.20624235,9.99785313 1.20624235,10.6381237 C1.2123011,14.2122856 1.21780906,17.788085 1.22276622,21.3611552 C1.22386781,22.0199844 1.61383109,22.4009809 2.28249694,22.4009809 C6.79902081,22.3922474 11.3149939,22.3856973 15.8337209,22.3775097 C15.8921053,22.3775097 15.9499388,22.3775097 16.0072215,22.3753264 C16.5547124,22.3665929 16.9650551,21.9626712 16.9650551,21.423381 C16.9584455,17.7919059 16.9529376,14.1609766 16.9441248,10.5305932 C16.9441248,10.1610594 16.7750306,9.8657598 16.4373929,9.70364524 C16.2771114,9.62613593 16.0771726,9.591748 15.8932069,9.591748 C13.6178703,9.58847295 11.3408813,9.59556888 9.06609547,9.5972064 Z M15.324235,8.38762443 L15.9543452,8.38762443 C17.2079559,8.38926195 18.1514688,9.31719036 18.1569767,10.5600686 C18.1619339,14.176806 18.1674419,17.7962726 18.1729498,21.4080975 C18.1729498,22.6384214 17.2250306,23.5745374 15.9769278,23.5789041 C14.2727662,23.5843625 12.5691554,23.5854542 10.8638923,23.5892751 C7.99259486,23.5936418 5.1130355,23.5980085 2.24063647,23.6002041 C1.18200734,23.6034669 0.315605875,22.9479128 0.0798653611,21.9604878 C0.038004896,21.792369 0.0187270502,21.607875 0.0187270502,21.4348437 C0.00771113831,17.8230188 0.00275397797,14.2101023 0,10.5977316 C0,9.67471571 0.430171359,9.00879062 1.26682987,8.60104796 C1.56646267,8.4536711 1.89143207,8.40127043 2.22576499,8.40782052 C2.41578947,8.40945804 2.60966952,8.40782052 2.81952264,8.40782052 L2.81952264,8.24024756 C2.81952264,7.57595999 2.81787026,6.91058074 2.81787026,6.24138061 C2.81401469,3.18685863 4.96046512,0.639422241 7.99920441,0.0952195232 C11.2973684,-0.494287934 14.5718482,1.71691087 15.194798,4.97121038 C15.2735618,5.37949887 15.3044064,5.79652082 15.3154223,6.2140886 C15.3369033,6.87728449 15.3209302,7.5448471 15.324235,8.21404723 L15.324235,8.38762443 Z" id="Stroke-41" stroke="#EFEFEF" stroke-width="0.688563514"></path>
                    <path d="M8.48015912,17.6129795 L8.48015912,18.9786717 C8.48566707,19.2641462 8.66302326,19.4944908 8.92795594,19.5670875 C9.32618115,19.6768014 9.69246022,19.3847769 9.6952142,18.9584757 C9.69796818,18.0971398 9.69796818,17.2358039 9.68970624,16.3711929 C9.68474908,16.0726183 9.79600979,15.8668365 10.0548837,15.707997 C10.714186,15.3018919 11.0275887,14.5257071 10.8474786,13.7740851 C10.6756304,13.0437508 10.0300979,12.4809895 9.27275398,12.400751 C8.4327907,12.318875 7.63854345,12.8155896 7.36645043,13.6021454 C7.08829865,14.402893 7.39839657,15.2773291 8.12875153,15.718368 C8.37165239,15.8668365 8.48566707,16.0627932 8.48015912,16.3466301 C8.4702448,16.7674729 8.48015912,17.1899533 8.48015912,17.6129795 M7.270612,17.9361169 C7.270612,17.5289201 7.27336597,17.1217233 7.26510404,16.7123431 C7.26235006,16.6468422 7.22159119,16.5682413 7.17422277,16.5223907 C6.20812729,15.6878009 5.83744186,14.6419711 6.16626683,13.4209264 C6.49674419,12.1927859 7.35102815,11.4586308 8.61785802,11.2331988 C10.2586781,10.9444493 11.867552,12.134381 12.0763035,13.7795435 C12.215104,14.8761365 11.8471726,15.7855064 11.000049,16.5043779 C10.9240392,16.5693329 10.8998042,16.6321046 10.8998042,16.7238057 C10.9020073,17.4721527 10.9075153,18.219408 10.9047613,18.9688466 C10.9020073,19.842191 10.3165116,20.5703419 9.47764994,20.7482858 C8.33585067,20.9884555 7.28988984,20.1533199 7.27336597,18.9874052 C7.2695104,18.6342466 7.27336597,18.2838171 7.270612,17.9361169" id="Fill-43" fill="#EFEFEF"></path>
                    <path d="M8.48015912,17.6129795 L8.48015912,18.9786717 C8.48566707,19.2641462 8.66302326,19.4944908 8.92795594,19.5670875 C9.32618115,19.6768014 9.69246022,19.3847769 9.6952142,18.9584757 C9.69796818,18.0971398 9.69796818,17.2358039 9.68970624,16.3711929 C9.68474908,16.0726183 9.79600979,15.8668365 10.0548837,15.707997 C10.714186,15.3018919 11.0275887,14.5257071 10.8474786,13.7740851 C10.6756304,13.0437508 10.0300979,12.4809895 9.27275398,12.400751 C8.4327907,12.318875 7.63854345,12.8155896 7.36645043,13.6021454 C7.08829865,14.402893 7.39839657,15.2773291 8.12875153,15.718368 C8.37165239,15.8668365 8.48566707,16.0627932 8.48015912,16.3466301 C8.4702448,16.7674729 8.48015912,17.1899533 8.48015912,17.6129795 Z M7.270612,17.9361169 C7.270612,17.5289201 7.27336597,17.1217233 7.26510404,16.7123431 C7.26235006,16.6468422 7.22159119,16.5682413 7.17422277,16.5223907 C6.20812729,15.6878009 5.83744186,14.6419711 6.16626683,13.4209264 C6.49674419,12.1927859 7.35102815,11.4586308 8.61785802,11.2331988 C10.2586781,10.9444493 11.867552,12.134381 12.0763035,13.7795435 C12.215104,14.8761365 11.8471726,15.7855064 11.000049,16.5043779 C10.9240392,16.5693329 10.8998042,16.6321046 10.8998042,16.7238057 C10.9020073,17.4721527 10.9075153,18.219408 10.9047613,18.9688466 C10.9020073,19.842191 10.3165116,20.5703419 9.47764994,20.7482858 C8.33585067,20.9884555 7.28988984,20.1533199 7.27336597,18.9874052 C7.2695104,18.6342466 7.27336597,18.2838171 7.270612,17.9361169 Z" id="Stroke-45" stroke="#EFEFEF" stroke-width="0.688563514"></path>
                    <path d="M46.1913709,87.0167842 C48.7305386,87.0167842 51.2697062,87.0102341 53.8088739,87.0239323 C54.1602815,87.0260634 54.2946756,86.9605626 54.2930383,86.5724702 C54.2770502,83.2019067 54.2853121,79.8313432 54.2820073,76.4607798 C54.2820073,75.4940967 53.8077723,75.0268575 52.8312118,75.0263116 C48.40612,75.0246741 43.9799266,75.0246741 39.554284,75.0263116 C38.5804774,75.0268575 38.0985312,75.5006468 38.0974296,76.4607798 C38.0946756,79.8313432 38.1023868,83.2019067 38.0869381,86.5724702 C38.0847613,86.9611084 38.220257,87.0260634 38.5711138,87.0239323 C41.1113831,87.0102341 43.6511016,87.0167842 46.1913709,87.0167842 M56.1481028,89.7034098 C56.1481028,90.1837492 56.1481028,90.6657261 56.1492044,91.1471572 C56.0175643,91.4435485 55.7465728,91.3474806 55.5257038,91.3474806 C51.4960832,91.3523932 47.4653611,91.3513015 43.4340881,91.3513015 C41.2259486,91.3513015 39.0172583,91.3523932 36.8096695,91.3474806 C36.5998164,91.3474806 36.3481028,91.4271733 36.2313341,91.1471572 C36.2318849,90.6657261 36.2324357,90.1848409 36.2324357,89.7034098 C36.5733782,89.0172886 36.9044064,88.3284382 37.2563647,87.6483213 C37.3835985,87.403239 37.4370257,87.160886 37.4359241,86.8879659 C37.430967,83.4595433 37.4320685,80.0311208 37.4331701,76.6010607 C37.4331701,75.1524007 38.1927173,74.396412 39.6517748,74.396412 C44.0173807,74.3947745 48.3835373,74.3947745 52.7491432,74.396412 C54.1839657,74.396412 54.9468176,75.1540382 54.9468176,76.5748604 C54.9473684,79.7390962 54.9556304,82.9033321 54.9413097,86.0681138 C54.9374541,86.8399319 54.9594859,87.594829 55.2706854,88.3164298 C55.3659731,88.5347659 55.4067319,88.7689313 55.1098531,88.8584491 C54.8465728,88.937596 54.7567931,88.7367267 54.6807834,88.5265783 C54.3662791,87.659784 54.3635251,87.6608756 53.4508568,87.6608756 C48.4468788,87.6608756 43.4423501,87.6646965 38.4378213,87.652688 C38.0764994,87.652688 37.872705,87.7443892 37.7294982,88.0855393 C37.5185435,88.5860748 37.247552,89.0631392 37.0018972,89.5505745 C36.9556304,89.6417299 36.9033048,89.733431 36.8746634,89.8300447 C36.6730722,90.5096158 36.8311506,90.7214019 37.530661,90.7214019 C43.3674419,90.7214019 49.203672,90.7230394 55.0382497,90.7153976 C55.2095471,90.7153976 55.4761322,90.8600453 55.5361689,90.5221702 C55.5995104,90.1613698 55.4056304,90.1204317 55.1010404,90.1215234 C51.849694,90.1291652 48.5977968,90.1258901 45.3458996,90.1258901 L38.1728886,90.1258901 C38.0544676,90.1258901 37.9349449,90.1269818 37.8170747,90.1220693 C37.6138311,90.1138817 37.4574051,90.0221805 37.4529988,89.8131237 C37.4474908,89.6051586 37.600612,89.5036323 37.8,89.4850737 C37.9178703,89.4736111 38.0373929,89.4779778 38.155814,89.4779778 C43.9325581,89.4779778 49.7104039,89.4774319 55.4849449,89.4812528 C55.7239902,89.4817987 56.0076499,89.3950101 56.1481028,89.7034098" id="Fill-47" fill="#EFEFEF"></path>
                    <path d="M46.1913709,87.0167842 C48.7305386,87.0167842 51.2697062,87.0102341 53.8088739,87.0239323 C54.1602815,87.0260634 54.2946756,86.9605626 54.2930383,86.5724702 C54.2770502,83.2019067 54.2853121,79.8313432 54.2820073,76.4607798 C54.2820073,75.4940967 53.8077723,75.0268575 52.8312118,75.0263116 C48.40612,75.0246741 43.9799266,75.0246741 39.554284,75.0263116 C38.5804774,75.0268575 38.0985312,75.5006468 38.0974296,76.4607798 C38.0946756,79.8313432 38.1023868,83.2019067 38.0869381,86.5724702 C38.0847613,86.9611084 38.220257,87.0260634 38.5711138,87.0239323 C41.1113831,87.0102341 43.6511016,87.0167842 46.1913709,87.0167842 Z M56.1481028,89.7034098 C56.1481028,90.1837492 56.1481028,90.6657261 56.1492044,91.1471572 C56.0175643,91.4435485 55.7465728,91.3474806 55.5257038,91.3474806 C51.4960832,91.3523932 47.4653611,91.3513015 43.4340881,91.3513015 C41.2259486,91.3513015 39.0172583,91.3523932 36.8096695,91.3474806 C36.5998164,91.3474806 36.3481028,91.4271733 36.2313341,91.1471572 C36.2318849,90.6657261 36.2324357,90.1848409 36.2324357,89.7034098 C36.5733782,89.0172886 36.9044064,88.3284382 37.2563647,87.6483213 C37.3835985,87.403239 37.4370257,87.160886 37.4359241,86.8879659 C37.430967,83.4595433 37.4320685,80.0311208 37.4331701,76.6010607 C37.4331701,75.1524007 38.1927173,74.396412 39.6517748,74.396412 C44.0173807,74.3947745 48.3835373,74.3947745 52.7491432,74.396412 C54.1839657,74.396412 54.9468176,75.1540382 54.9468176,76.5748604 C54.9473684,79.7390962 54.9556304,82.9033321 54.9413097,86.0681138 C54.9374541,86.8399319 54.9594859,87.594829 55.2706854,88.3164298 C55.3659731,88.5347659 55.4067319,88.7689313 55.1098531,88.8584491 C54.8465728,88.937596 54.7567931,88.7367267 54.6807834,88.5265783 C54.3662791,87.659784 54.3635251,87.6608756 53.4508568,87.6608756 C48.4468788,87.6608756 43.4423501,87.6646965 38.4378213,87.652688 C38.0764994,87.652688 37.872705,87.7443892 37.7294982,88.0855393 C37.5185435,88.5860748 37.247552,89.0631392 37.0018972,89.5505745 C36.9556304,89.6417299 36.9033048,89.733431 36.8746634,89.8300447 C36.6730722,90.5096158 36.8311506,90.7214019 37.530661,90.7214019 C43.3674419,90.7214019 49.203672,90.7230394 55.0382497,90.7153976 C55.2095471,90.7153976 55.4761322,90.8600453 55.5361689,90.5221702 C55.5995104,90.1613698 55.4056304,90.1204317 55.1010404,90.1215234 C51.849694,90.1291652 48.5977968,90.1258901 45.3458996,90.1258901 L38.1728886,90.1258901 C38.0544676,90.1258901 37.9349449,90.1269818 37.8170747,90.1220693 C37.6138311,90.1138817 37.4574051,90.0221805 37.4529988,89.8131237 C37.4474908,89.6051586 37.600612,89.5036323 37.8,89.4850737 C37.9178703,89.4736111 38.0373929,89.4779778 38.155814,89.4779778 C43.9325581,89.4779778 49.7104039,89.4774319 55.4849449,89.4812528 C55.7239902,89.4817987 56.0076499,89.3950101 56.1481028,89.7034098 Z" id="Stroke-49" stroke="#EFEFEF" stroke-width="0.688563514"></path>
                    <path d="M46.1919217,75.8955622 C48.4782742,75.8955622 50.7662791,75.8950164 53.05153,75.8955622 C53.6491432,75.8955622 53.6899021,75.9359544 53.6899021,76.5172742 C53.6915545,79.0925485 53.6915545,81.6678227 53.6899021,84.243097 C53.6899021,84.3746445 53.6915545,84.5105587 53.6618115,84.6371936 C53.6276622,84.7791121 53.5141983,84.8571672 53.3632803,84.8533464 C53.2140147,84.8495255 53.102754,84.7714703 53.0779682,84.6246393 C53.0526316,84.4810833 53.05153,84.3320689 53.05153,84.1852379 C53.0493268,81.7720782 53.0443696,79.3578268 53.0564871,76.9446671 C53.0581395,76.6100671 52.9821297,76.4883447 52.6164015,76.4899822 C48.3405753,76.5030824 44.0641983,76.5030824 39.7872705,76.4899822 C39.4050184,76.4883447 39.3212974,76.6095212 39.3229498,76.9648632 C39.3372705,79.6438471 39.3394737,82.3222852 39.3212974,85.0007232 C39.3185435,85.3970032 39.4358629,85.4887044 39.8219706,85.4870669 C44.1429621,85.4739667 48.4650551,85.4788793 52.7854957,85.4788793 C52.9044676,85.4788793 53.0223378,85.4794251 53.1418605,85.4788793 C53.3847613,85.4772418 53.673929,85.4646874 53.6717258,85.7916457 C53.6700734,86.1191499 53.380355,86.101683 53.1374541,86.101683 C48.5052632,86.101683 43.8719706,86.0989538 39.2381273,86.1071414 C38.8393513,86.1071414 38.6823745,85.9712272 38.684014,85.5667596 C38.6939412,82.5204252 38.6939412,79.4740908 38.684014,76.4272106 C38.6823745,76.0221971 38.8426561,75.8873746 39.2419829,75.8895319 C41.5586291,75.9010206 43.8752754,75.8955622 46.1919217,75.8955622" id="Fill-51" fill="#EFEFEF"></path>
                    <path d="M46.1919217,75.8955622 C48.4782742,75.8955622 50.7662791,75.8950164 53.05153,75.8955622 C53.6491432,75.8955622 53.6899021,75.9359544 53.6899021,76.5172742 C53.6915545,79.0925485 53.6915545,81.6678227 53.6899021,84.243097 C53.6899021,84.3746445 53.6915545,84.5105587 53.6618115,84.6371936 C53.6276622,84.7791121 53.5141983,84.8571672 53.3632803,84.8533464 C53.2140147,84.8495255 53.102754,84.7714703 53.0779682,84.6246393 C53.0526316,84.4810833 53.05153,84.3320689 53.05153,84.1852379 C53.0493268,81.7720782 53.0443696,79.3578268 53.0564871,76.9446671 C53.0581395,76.6100671 52.9821297,76.4883447 52.6164015,76.4899822 C48.3405753,76.5030824 44.0641983,76.5030824 39.7872705,76.4899822 C39.4050184,76.4883447 39.3212974,76.6095212 39.3229498,76.9648632 C39.3372705,79.6438471 39.3394737,82.3222852 39.3212974,85.0007232 C39.3185435,85.3970032 39.4358629,85.4887044 39.8219706,85.4870669 C44.1429621,85.4739667 48.4650551,85.4788793 52.7854957,85.4788793 C52.9044676,85.4788793 53.0223378,85.4794251 53.1418605,85.4788793 C53.3847613,85.4772418 53.673929,85.4646874 53.6717258,85.7916457 C53.6700734,86.1191499 53.380355,86.101683 53.1374541,86.101683 C48.5052632,86.101683 43.8719706,86.0989538 39.2381273,86.1071414 C38.8393513,86.1071414 38.6823745,85.9712272 38.684014,85.5667596 C38.6939412,82.5204252 38.6939412,79.4740908 38.684014,76.4272106 C38.6823745,76.0221971 38.8426561,75.8873746 39.2419829,75.8895319 C41.5586291,75.9010206 43.8752754,75.8955622 46.1919217,75.8955622 Z" id="Stroke-53" stroke="#EFEFEF" stroke-width="0.688563514"></path>
                    <path d="M30.4022644,39.5185853 C31.5578335,39.5928196 32.4159731,40.7352632 32.1328641,42.0119836 C31.7913709,43.5490697 31.5638923,45.1107186 31.2868421,46.6614507 C31.1645655,47.3453885 31.0516524,48.030418 30.9156059,48.7110808 C30.7299878,49.6406467 29.9219706,50.3207637 28.9872705,50.3213095 C23.8086903,50.3262221 18.6295594,50.3234929 13.45153,50.3224012 C13.3793758,50.3224012 13.3066707,50.3065718 13.2350673,50.2978384 C13.3209914,49.7896611 13.3931457,49.2793005 13.4966952,48.7749441 C13.6712974,47.9261625 13.8200122,47.0724684 13.976989,46.2220493 C14.1471848,45.300671 14.3294982,44.3803843 14.4776622,43.4540935 C14.5801102,42.8138229 14.696328,42.1751898 14.8180539,41.5376484 C14.9144431,41.030017 15.0058752,40.5191105 15.3947368,40.1222846 C15.8921053,39.6162907 16.5244186,39.4896558 17.1952876,39.4885641 C21.3653611,39.4847432 25.5348837,39.4847432 29.7044064,39.4918392 C29.9572215,39.4918392 30.195716,39.5054852 30.4022644,39.5185853" id="Fill-55" fill="#FFE800"></path>
                </g>
                <g id="Group-60" transform="translate(100.138081, 84.131200)">
                    <path d="M6.70579907,0 C6.06631335,0.00266666667 5.42628478,0.00213333333 4.78679907,0.00213333333 L4.78679907,0.00213333333 C3.83571335,0.00106666667 2.88408478,0 1.93299907,0.00906666667 L1.93299907,0.00906666667 C1.22077049,0.016 0.678456209,0.361066667 0.296284781,0.948266667 L0.296284781,0.948266667 C0.0471133521,1.33173333 0.00151335208,1.7648 0.00151335208,2.20426667 L0.00151335208,2.20426667 C-0.000658076494,5.86773333 -0.000658076494,9.53226667 0.00259906636,13.1962667 L0.00259906636,13.1962667 C0.00259906636,13.4181333 0.0264847806,13.6416 0.0628562092,13.8608 L0.0628562092,13.8608 C0.179027638,14.5664 0.836970495,15.2016 1.54865621,15.3088 L1.54865621,15.3088 C1.63442764,15.28 1.72019907,15.2528 1.77502764,15.3589333 L1.77502764,15.3589333 C1.85265621,15.3936 1.93137049,15.4005333 2.01225621,15.3685333 L2.01225621,15.3685333 C2.09694192,14.8725333 2.16805621,14.3728 2.27011335,13.8805333 L2.27011335,13.8805333 C2.44219907,13.0512 2.58877049,12.2170667 2.74348478,11.3861333 L2.74348478,11.3861333 C2.91122764,10.4853333 3.09091335,9.5872 3.23694192,8.6816 L3.23694192,8.6816 C3.33791335,8.05653333 3.45245621,7.43253333 3.57242764,6.80906667 L3.57242764,6.80906667 C3.66742764,6.31306667 3.75808478,5.81386667 4.14079907,5.42613333 L4.14079907,5.42613333 C4.63099907,4.9312 5.25419907,4.808 5.91539907,4.80693333 L5.91539907,4.80693333 C10.0253705,4.80266667 14.1353419,4.80266667 18.2447705,4.81013333 L18.2447705,4.81013333 C18.4939419,4.81013333 18.6225991,4.80426667 18.6220562,4.51626667 L18.6220562,4.51626667 C18.6225991,4.12853333 18.6220562,3.95306667 18.6220562,3.71413333 L18.6220562,3.71413333 C18.6193419,3.27786667 18.4363991,2.9104 18.1530276,2.5888 L18.1530276,2.5888 C17.7252562,2.1008 17.1677419,1.92746667 16.5244562,1.9296 L16.5244562,1.9296 C15.2894562,1.93333333 14.0549991,1.93333333 12.8210848,1.93333333 L12.8210848,1.93333333 C11.6278848,1.93333333 10.4341419,1.93333333 9.24094192,1.936 L9.24094192,1.936 C8.97331335,1.93653333 8.77299907,1.86186667 8.58571335,1.66933333 L8.58571335,1.66933333 C8.09225621,1.16426667 7.57925621,0.677333333 7.07657049,0.1808 L7.07657049,0.1808 C6.97234192,0.0778666667 6.87299907,0 6.70742764,0 L6.70742764,0 C6.70688478,0 6.70634192,0 6.70579907,0" id="Fill-58"></path>
                </g>
                <g id="Group-83" transform="translate(9.117792, 24.244598)">
                    <path d="M172.564763,121.420855 C172.564763,122.491864 171.699088,123.360961 170.632298,123.360961 C169.565507,123.360961 168.699833,122.491864 168.699833,121.420855 C168.699833,120.349297 169.565507,119.481297 170.632298,119.481297 C171.699088,119.481297 172.564763,120.349297 172.564763,121.420855" id="Fill-61" fill="#EFEFEF"></path>
                    <path d="M77.0180802,13.2686035 C77.0180802,14.3396124 76.1524058,15.2087097 75.0856151,15.2087097 C74.0188244,15.2087097 73.15315,14.3396124 73.15315,13.2686035 C73.15315,12.197046 74.0188244,11.329046 75.0856151,11.329046 C76.1524058,11.329046 77.0180802,12.197046 77.0180802,13.2686035" id="Fill-63" fill="#EFEFEF"></path>
                    <path d="M30.9451279,119.429228 C30.9451279,120.499688 30.0794535,121.368786 29.0126628,121.368786 C27.9458721,121.368786 27.0801977,120.499688 27.0801977,119.429228 C27.0801977,118.357671 27.9458721,117.489671 29.0126628,117.489671 C30.0794535,117.489671 30.9451279,118.357671 30.9451279,119.429228" id="Fill-65" fill="#EFEFEF"></path>
                    <line x1="152.30115" y1="86.9086372" x2="152.30115" y2="95.6873982" id="Stroke-67" stroke="#EFEFEF" stroke-width="2.06569054" stroke-linecap="round" stroke-linejoin="round"></line>
                    <line x1="156.673243" y1="91.2980177" x2="147.929057" y2="91.2980177" id="Stroke-69" stroke="#EFEFEF" stroke-width="2.06569054" stroke-linecap="round" stroke-linejoin="round"></line>
                    <line x1="4.37209302" y1="89.0057735" x2="4.37209302" y2="97.7845345" id="Stroke-71" stroke="#EFEFEF" stroke-width="2.06569054" stroke-linecap="round" stroke-linejoin="round"></line>
                    <line x1="8.74418605" y1="93.395154" x2="0" y2="93.395154" id="Stroke-73" stroke="#EFEFEF" stroke-width="2.06569054" stroke-linecap="round" stroke-linejoin="round"></line>
                    <line x1="118.638876" y1="0" x2="118.638876" y2="8.77876106" id="Stroke-75" stroke="#EFEFEF" stroke-width="2.06569054" stroke-linecap="round" stroke-linejoin="round"></line>
                    <line x1="123.010969" y1="4.38938053" x2="114.266783" y2="4.38938053" id="Stroke-77" stroke="#EFEFEF" stroke-width="2.06569054" stroke-linecap="round" stroke-linejoin="round"></line>
                    <line x1="183.242015" y1="82.5192566" x2="183.242015" y2="91.2980177" id="Stroke-79" stroke="#EFEFEF" stroke-width="2.06569054" stroke-linecap="round" stroke-linejoin="round"></line>
                    <line x1="187.614108" y1="86.9086372" x2="178.869922" y2="86.9086372" id="Stroke-81" stroke="#EFEFEF" stroke-width="2.06569054" stroke-linecap="round" stroke-linejoin="round"></line>
                </g>
                <g id="Group-86" transform="translate(133.269253, 42.240000)" fill="url(#linearGradient-1)">
                    <path d="M30.8985507,0.130612245 C21.277449,1.98857143 11.6579999,3.84870748 2.01376257,5.59945578 L2.01376257,5.59945578 C0.438889686,5.88571429 0.0191439229,6.48489796 0.037321889,8.00761905 L0.037321889,8.00761905 C0.121050703,14.7107483 -0.0364916703,39.1472109 0.00812697379,44.7847619 L0.00812697379,44.7847619 C0.0643134145,52.1191837 2.4285507,58.0141497 7.18622019,63.2272109 L7.18622019,63.2272109 C13.8244829,70.5023129 22.1268558,75.4193197 31.0825338,79.3752381 L31.0825338,79.3752381 C31.7672371,79.6794558 32.3593982,79.8312925 33.1052456,79.4944218 L33.1052456,79.4944218 C43.4441016,74.8462585 53.0574914,69.2038095 59.8924066,59.9102041 L59.8924066,59.9102041 C62.9529151,55.7529252 64.4980422,51.1423129 64.4170677,45.8465306 L64.4170677,45.8465306 C64.2193134,33.3268027 64.3234236,20.7994558 64.390627,8.27428571 L64.390627,8.27428571 C64.4005422,6.56435374 63.9912626,5.8770068 62.1492287,5.54993197 L62.1492287,5.54993197 C52.589271,3.85034014 43.0607117,1.97714286 33.529949,0.130612245 L33.529949,0.130612245 C33.0799066,0.043537415 32.6469405,0 32.2139744,0 L32.2139744,0 C31.7810083,0 31.3480422,0.043537415 30.8985507,0.130612245" id="Fill-84"></path>
                </g>
                <path d="M188.222761,55.3183776 C180.802449,53.9957929 173.407385,52.5383948 166.008479,51.10111 C165.311401,50.9662967 164.665369,50.9662967 163.967193,51.10111 C156.499677,52.5476361 149.033258,53.9947057 141.547629,55.3564298 C140.325822,55.5798504 140.000336,56.045174 140.014058,57.2307709 C140.078825,62.4460925 139.956974,81.4591307 139.991005,85.8454587 C140.034366,91.5521968 141.869822,96.1385705 145.562688,100.194388 C150.714479,105.854376 157.158882,109.680794 164.109902,112.759214 C164.641218,112.995138 165.100082,113.1131 165.679699,112.851627 C173.704878,109.23504 181.166356,104.844907 186.470735,97.6139074 C188.846838,94.379473 190.046141,90.7916971 189.982471,86.6722779 C189.829883,76.9298354 189.910019,67.1835876 189.961614,57.4378834 C189.969298,56.1076883 189.653143,55.5727835 188.222761,55.3183776 Z" id="Fill-87" fill="#007DD5"></path>
                <g id="Group-91" transform="translate(140.227318, 53.186999)" fill="url(#linearGradient-2)">
                    <path d="M1.56223306,3.99622506 C0.341377669,4.20121559 0.0154504334,4.62864267 0.0291679097,5.71574673 C0.0939143976,10.5014034 -0.0278967916,31.2264661 0.00612254955,35.2510409 C0.0494697745,40.4864774 1.8843194,44.6947804 5.57651531,48.4151406 C10.7260559,53.6085976 17.1683314,57.1190605 24.1170562,59.9431322 C24.6487456,60.1601169 25.1069093,60.2686092 25.6857868,60.0287267 C33.7088643,56.7101698 41.1673305,52.6823238 46.4705068,46.047936 C48.845825,43.0810251 50.0452811,39.7891825 49.9810833,36.0093969 C49.828545,27.0710463 49.9086551,14.8476389 49.9602328,5.9060172 C49.9679146,4.68534218 49.6518639,4.19521853 48.2219542,3.96078786 C40.8046404,2.74829066 33.4114694,1.4104003 26.0155549,0.0921367032 C25.6665823,0.0305305052 25.3307785,0 24.9949747,0 C24.6591709,0 24.3233671,0.0305305052 23.9743945,0.0921367032 C16.5098926,1.41966849 9.0453907,2.74720028 1.56223306,3.99622506 Z" id="Fill-89"></path>
                </g>
                <g id="Group-98" transform="translate(18.369347, 70.156918)">
                    <polyline id="Stroke-92" stroke="#FFFFFF" stroke-width="4.8199446" points="133.798187 12.1425034 143.082078 21.0032934 159.207482 0"></polyline>
                    <path d="M39.4287278,92.2781753 C38.2256258,100.172056 32.6825867,98.6252196 32.9462278,98.2780262 C35.7980455,94.5302996 32.9462278,91.6857118 32.9462278,91.6857118 C32.9462278,91.6857118 8.72085051,74.2491902 2.94705703,70.4213421 C-2.82673645,66.5934939 1.66393091,61.9153761 1.66393091,61.9153761 C1.66393091,61.9153761 32.4573134,41.9269558 38.0162477,38.0991076 C43.57573,34.2712594 51.0612719,31.5073383 51.0612719,31.5073383 L49.9919087,20.2374512 C49.9919087,20.2374512 48.4950196,11.7314853 52.1300869,8.32931697 C55.7651541,4.92714862 62.6088588,9.81728871 65.1745629,16.6221705 C67.7408152,23.4270522 62.6088588,24.2778668 62.6088588,24.2778668 L62.6088588,31.5073383 C62.6088588,31.5073383 81.2122692,32.3576079 86.1310106,42.3520906 C91.0497521,52.3465733 107.09568,78.0764934 107.09568,78.0764934 C107.09568,78.0764934 128.907728,83.1802909 134.039684,82.9677236 C134.039684,82.9677236 140.029433,81.0971305 141.600865,81.3205988 C143.171749,81.543522 145.866259,81.7669903 144.855544,82.5480392 C143.844829,83.3296332 141.825042,82.6603184 141.825042,82.6603184 C141.825042,82.6603184 148.784946,83.5531014 150.132201,83.6642905 C150.132201,83.6642905 150.692918,86.566653 145.641534,86.9018554 C140.59015,87.2370579 135.108499,86.7950267 135.108499,86.7950267 C133.61161,86.7950267 105.812006,88.0709761 105.812006,88.0709761 L85.4891735,65.7432243 L86.2378921,91.4731444 L36.9474327,92.323959 L32.9462278,57.6623932 L13.2115179,68.5076905 L36.4294685,87.8415123" id="Fill-94" fill="#FFBA72"></path>
                    <path d="M134.039574,82.9677236 C128.907618,83.1802909 107.09557,78.0764934 107.09557,78.0764934 C107.09557,78.0764934 91.0496425,52.3465733 86.130901,42.3520906 C83.217695,36.4329063 75.5041393,33.7213094 69.6985554,32.4944141 C69.0627475,35.7074519 66.6313304,40.438439 57.8166212,40.438439 C47.8618427,40.438439 45.1141659,36.4639738 44.3605143,34.4440386 C42.2903019,35.4698125 40.0271546,36.7141493 38.0166862,38.0991076 C32.4572038,41.9269558 1.66382129,61.9153761 1.66382129,61.9153761 C1.66382129,61.9153761 -2.82684607,66.5934939 2.94694741,70.4213421 C8.72074088,74.2491902 32.9466663,91.6857118 32.9466663,91.6857118 C32.9466663,91.6857118 32.9872264,91.7271352 33.049711,91.8001712 C34.0006823,89.9911682 35.023456,88.0867824 35.5973275,87.1493057 L13.2114082,68.5076905 L32.9466663,57.6623932 L36.3082265,86.7895762 C37.1654709,87.8644042 39.4286182,92.2781753 39.4286182,92.2781753 L39.4417728,92.2814456 L86.2377825,91.4731444 L85.4890639,65.7432243 L105.811896,88.0709761 C105.811896,88.0709761 133.6115,86.7950267 135.10839,86.7950267 C135.381348,86.7950267 135.583053,87.0092292 135.742553,87.3531524 C135.853271,85.7752483 135.957412,84.2338621 136.052235,82.7922192 C135.414783,82.8723408 134.746089,82.9382911 134.039574,82.9677236" id="Fill-96" fill="#EFEFEF"></path>
                </g>
                <g id="Group-101" transform="translate(39.044108, 162.063408)" fill="url(#linearGradient-3)">
                    <polygon id="Fill-99" points="17.0299369 0.741760074 0 113.42238 38.5312522 22.91872 24.7876141 138.356467 63.2353029 -4.51499156e-14"></polygon>
                </g>
                <path d="M69.4497072,85.3295708 C69.4497072,85.3295708 72.2681694,84.2294575 71.6236821,81.0070065 C71.6236821,81.0070065 80.0785184,81.7934157 77.8241889,74.4842157 C75.5693091,67.1755528 68.161283,72.5198044 68.0809285,79.9068933 C68.000574,87.2945193 64.7797888,84.7010881 69.7716756,89.0231153 C74.7641128,93.3456796 75.2473406,98.7683571 83.460563,94.3673668 C91.6737853,89.9663765 82.9575217,83.4999879 82.9575217,83.4999879 C82.9575217,83.4999879 77.2881252,83.5778768 75.8918279,88.865726 C75.8918279,88.865726 72.0617794,86.569347 70.2549035,87.2155561 L69.4497072,85.3295708 Z" id="Fill-102" fill="#434141"></path>
                <g id="Group-106" transform="translate(17.470966, 101.132185)" fill="url(#linearGradient-4)">
                    <path d="M0,35.3223109 C0.0499667707,43.4210924 31.8949225,61.1076471 31.8949225,61.1076471 L31.8949225,61.1076471 L36.6041792,54.2881092 L14.7697544,38.0916387 L34.5252588,27.2235294 L38.5300199,64.7307143 L61.4349048,64.7307143 L57.3681438,16.5689916 L50.9459314,14.0645798 L57.5283562,10.0695378 L50.7851703,0 C50.7851703,0 -0.050440309,27.2235294 0,35.3223109" id="Fill-104"></path>
                </g>
                <g id="Group-109" transform="translate(81.184813, 100.315273)" fill="url(#linearGradient-5)">
                    <path d="M2.55064179,0.00327272727 L0,11.1223636 L7.1196791,11.9203636 L0.166156716,17.5172727 L5.31374627,65.5478182 L26.1427164,65.5478182 L23.5920746,36.18 L43.7907388,58.5245455 L70.7838507,59.802 L72.4846418,51.7145455 L45.0666045,48.5225455 L24.6554776,10.0058182 C24.6554776,10.0058182 18.4090746,0 3.03385821,0 L3.03385821,0 C2.87314925,0 2.71298507,0.00109090909 2.55064179,0.00327272727" id="Fill-107"></path>
                </g>
                <g id="Group-117" transform="translate(75.259559, 106.508784)" fill="#004E8F">
                    <polygon id="Fill-110" points="4.15925151 9.53820848 2.96956677 7.8674841 4.10515009 3.64031734 1.60774116 0 0 3.75518304 1.8017412 8.00684723 0.495656434 10.4936081 3.1613809 40.440349 5.71890252 41.9276149 7.10531969 40.1218825"></polygon>
                    <polygon id="Fill-114" points="28.7452315 29.9269253 27.732606 18.7767862 49.0075791 52.2277477"></polygon>
                </g>
            </g>
        </g>
    </g>
</svg>