<?xml version="1.0" encoding="UTF-8"?>
<svg width="33px" height="33px" viewBox="0 0 33 33" version="1.1" xmlns="http://www.w3.org/2000/svg" xmlns:xlink="http://www.w3.org/1999/xlink">
    <title>linkedin</title>
    <g id="Page-1" stroke="none" stroke-width="1" fill="none" fill-rule="evenodd">
        <g id="Forgot-password-5" transform="translate(-1118.000000, -936.000000)">
            <g id="linkedin" transform="translate(1118.000000, 936.000000)">
                <circle id="Oval-Copy-2" fill="#FFFFFF" cx="16.5" cy="16.5" r="16.5"></circle>
                <g id="341103_linkedin_icon" transform="translate(9.000000, 9.000000)" fill-rule="nonzero">
                    <rect id="rect2989" fill="#037BFF" transform="translate(7.500000, 7.500000) rotate(180.000000) translate(-7.500000, -7.500000) " x="0" y="0" width="15" height="15" rx="7.5"></rect>
                    <g id="g2987" transform="translate(2.000000, 3.000000)" fill="#FFFFFF">
                        <rect id="rect3163" x="0" y="3.15878378" width="2.40385329" height="6.84121622"></rect>
                        <path d="M1.21742789,2.17339185 C1.87662461,2.17339185 2.41143223,1.68663349 2.41143223,1.08672719 C2.41143223,0.486136941 1.87662461,0 1.21742789,0 C0.55779952,0 0.0233925511,0.486136941 0.0233925511,1.08672719 C0.0233925511,1.68663349 0.55779952,2.17339185 1.21742789,2.17339185 L1.21742789,2.17339185 Z" id="path3165"></path>
                        <path d="M10.9967873,6.22013522 C10.9826134,5.8610347 11.0709449,4.67473162 10.1360366,3.82627065 C9.64584759,3.38119858 9.39827736,3.17167117 8.20491331,3.17167117 C7.24611731,3.17167117 6.34772088,3.74182749 5.99144654,4.19527093 L5.99144654,3.19310327 L3.54295816,3.19310327 L3.54295816,9.96720924 L5.99144654,9.96720924 C5.99144654,9.96720924 5.99144654,6.85236473 5.99144654,6.10561071 C5.99144654,5.54941825 6.30572843,4.95932348 7.16099851,4.95932348 C8.0172513,4.95932348 8.55090686,5.59311611 8.55090686,6.32034852 L8.55090686,9.96720924 L11,9.96720924 L11,6.22013522 L10.9967873,6.22013522 Z" id="path3167"></path>
                    </g>
                </g>
            </g>
        </g>
    </g>
</svg>