<?xml version="1.0" encoding="UTF-8"?>
<svg width="34px" height="33px" viewBox="0 0 34 33" version="1.1" xmlns="http://www.w3.org/2000/svg" xmlns:xlink="http://www.w3.org/1999/xlink">
    <title>E7ACFF03-6D4C-43DD-9F6F-FF0863638EC6</title>
    <g id="Page-1" stroke="none" stroke-width="1" fill="none" fill-rule="evenodd" opacity="0.400000006">
        <g id="Style-sheet-RBL" transform="translate(-116.000000, -894.000000)" fill="#000000" fill-rule="nonzero">
            <g id="noun-register-4792950" transform="translate(116.000000, 894.000000)">
                <path d="M33.1783595,2.67835946 L31.3216405,2.67835946 L31.3216405,0.821640545 C31.3216405,0.369695994 30.9519446,0 30.5,0 C30.0480554,0 29.6783595,0.369695994 29.6783595,0.821640545 L29.6783595,2.67835946 L27.8216405,2.67835946 C27.369696,2.67835946 27,3.04805545 27,3.5 C27,3.95194455 27.369696,4.32164054 27.8216405,4.32164054 L29.6783595,4.32164054 L29.6783595,6.17835946 C29.6783595,6.63030401 30.0480554,7 30.5,7 C30.9519446,7 31.3216405,6.63030401 31.3216405,6.17835946 L31.3216405,4.32164054 L33.1783595,4.32164054 C33.630304,4.32164054 34,3.95194455 34,3.5 C34,3.04805545 33.630304,2.67835946 33.1783595,2.67835946 Z" id="Path"></path>
                <path d="M25.364591,16.3047012 C26.7417765,15.1546901 27.6122221,13.4256445 27.6122221,11.4948577 C27.6122221,8.05345822 24.8324308,5.2497307 21.4189429,5.2497307 C19.8725785,5.2497307 18.3941464,5.84583128 17.2702222,6.86970373 C15.9437324,4.51090041 13.4258931,3 10.6461018,3 C6.45523124,3 3.04174337,6.39110804 3.04174337,10.554502 C3.04174337,13.1651221 4.38525245,15.4733462 6.41308137,16.8245948 C2.69549158,17.9074787 0,21.0048965 0,24.6560952 L0,32.1602339 C0,32.6219939 0.380217922,33 0.845025278,33 L20.4468886,33 C20.911696,33 21.2919139,32.6222749 21.2919139,32.160515 L21.2919139,30.607741 L30.1549747,30.607741 C30.6197821,30.607741 31,30.2300159 31,29.768256 L31,23.28822 C31,19.9305676 28.6004266,17.1102921 25.3643738,16.2960607 L25.364591,16.3047012 Z M21.4187256,6.92057071 C23.9028885,6.92057071 25.922244,8.96856023 25.922244,11.4867276 C25.922244,14.0048949 23.9028885,16.0528844 21.4187256,16.0528844 C19.8047911,16.0528844 18.3178855,15.163108 17.5152998,13.7612083 C17.5322742,13.7277641 17.5489647,13.6856057 17.5659391,13.6437322 C17.6420406,13.4759503 17.7096542,13.3163129 17.7772678,13.148531 C17.8448807,12.9723168 17.9040071,12.7961026 17.9546449,12.6114562 C17.9801057,12.5274214 18.0052841,12.4521066 18.0222578,12.3680718 C18.1744608,11.7719712 18.2587606,11.1676974 18.2587606,10.5466453 C18.2587606,10.4376015 18.2417862,10.3282699 18.2332997,10.219226 C18.2332997,10.0764531 18.2163254,9.93396804 18.1996349,9.79119514 C18.1826612,9.64842225 18.16597,9.51408162 18.1489956,9.37159652 C18.1068436,9.12821204 18.0559183,8.89325984 17.9967926,8.64960196 C17.9883054,8.61615782 17.9883054,8.58243237 17.9713318,8.54899039 C18.8248305,7.5248877 20.0837501,6.92057071 21.4187858,6.92057071 L21.4187256,6.92057071 Z M16.3491534,17.3709652 C15.8676599,17.1444452 15.3689153,16.9679433 14.8537744,16.8254582 C15.4874709,16.4058596 16.0535249,15.8938082 16.5435352,15.297722 C17.0083426,15.9019671 17.5743966,16.4140616 18.2080931,16.8086224 C17.7772374,17.0520069 17.3715412,17.3541294 16.9743765,17.6983989 C16.7715356,17.589355 16.5686948,17.4718789 16.3491678,17.3625473 L16.3491534,17.3709652 Z M4.73114213,10.5465878 C4.73114213,7.30642589 7.38419415,4.67076806 10.6457397,4.67076806 C13.163579,4.67076806 15.4027366,6.2657033 16.2307426,8.63263671 C16.4505593,9.26217855 16.5603228,9.90855613 16.5603228,10.5465878 C16.5603228,11.1846194 16.4505593,11.7722158 16.2562064,12.3595963 C16.137955,12.6954479 16.0027278,13.0310117 15.8253507,13.3415377 C15.8168635,13.3584008 15.8253507,13.3834134 15.808377,13.4002765 C14.8114094,15.1798294 12.9610155,16.3045868 10.9331866,16.4052415 L10.2488523,16.4052415 C7.17343247,16.2037306 4.72294608,13.660583 4.72294608,10.5462575 L4.73114213,10.5465878 Z M19.6016461,31.3214684 L1.69808945,31.3214684 L1.69808945,24.6567428 C1.69808945,21.0307257 5.12852417,18.0841821 9.33576221,18.0841821 L10.2566138,18.0841821 C10.3833531,18.0841821 10.5185803,18.1010452 10.6453196,18.1010452 C10.7465952,18.1010452 10.8396726,18.0841821 10.9409481,18.0841821 L11.963336,18.0841821 C13.2476759,18.0841821 14.5065956,18.3612956 15.6218291,18.8899237 C17.835494,19.9306463 19.2717763,21.2653469 19.6013709,24.6985444 L19.6013709,31.3214684 L19.6016461,31.3214684 Z M29.309877,28.9292094 L21.2919863,28.9292094 L21.2919863,24.6567428 L21.2919863,24.5811402 C21.0385077,21.895191 20.1768253,20.048439 18.4615717,18.6718648 C19.3742396,17.9835849 20.1513326,17.7402148 21.3765758,17.7402148 L23.455028,17.7402148 C26.6911532,17.7402148 29.3187126,20.2330566 29.3187126,23.2970187 L29.3187126,28.9375697 L29.309877,28.9292094 Z" id="Shape"></path>
            </g>
        </g>
    </g>
</svg>