<?xml version="1.0" encoding="UTF-8"?>
<svg width="180px" height="74px" viewBox="0 0 180 74" version="1.1" xmlns="http://www.w3.org/2000/svg" xmlns:xlink="http://www.w3.org/1999/xlink">
    <title>FB820A5C-6298-487A-9C07-ADE4993E0E5E</title>
    <g id="Page-1" stroke="none" stroke-width="1" fill="none" fill-rule="evenodd">
        <g id="Style-sheet-RBL" transform="translate(-988.000000, -166.000000)" fill-rule="nonzero">
            <g id="Group-24" transform="translate(988.000000, 166.000000)">
                <g id="Group" transform="translate(-0.000000, 0.000000)">
                    <path d="M66.9987866,49.7169004 C66.1804495,49.938218 65.3326182,50.0307159 64.4857959,49.9910664 C57.8544611,49.9910664 60.0847252,43.0046867 56.0719486,43.0046867 L55.1412562,43.0046867 L55.1412562,49.8309341 L50,49.8309341 L50,30 L57.4018558,30 C62.7324054,30 65.4104211,31.8196856 65.4104211,36.4865727 C65.4180345,38.6036679 64.2266677,40.5427504 62.334404,41.4931345 C63.9118487,43.39046 63.7905068,45.7390676 66.1226981,45.7390676 L67,45.7390676 L66.9987866,49.7169004 Z M56.8606709,39.1518056 C58.9234832,39.1518056 60.4074946,38.302619 60.4074946,36.6661151 C60.4074946,35.0077749 59.1783012,34.1064239 57.196788,34.1064239 L55.1412562,34.1064239 L55.1412562,39.1530188 L56.8606709,39.1518056 Z" id="Path_107" fill="#00266F"></path>
                    <path d="M83.2626904,40.4876109 C84.3930747,41.4027136 85.0357367,42.8044135 84.9984636,44.2734781 C84.9984636,48.5022943 81.9334948,50 78.3091812,50 L69,50 L69,30 L77.3095779,30 C81.3272372,30 83.6764853,31.5087183 83.6764853,35.4132762 C83.6764853,38.8198226 81.5774387,39.3288467 80.5068649,39.3288467 L80.5068649,39.4083818 C81.5137105,39.4676202 82.4772046,39.845369 83.2626904,40.4888345 M76.1006715,37.9388192 C77.7847203,37.9388192 78.4402964,37.2719486 78.4402964,35.9993882 C78.4402964,34.7672071 77.5561708,34.1394922 75.7313836,34.1394922 L74.1243199,34.1394922 L74.1243199,37.9327011 L76.1006715,37.9388192 Z M76.7021175,45.8702967 C78.3717316,45.8702967 79.1247419,45.2841848 79.1247419,43.7106149 C79.1247419,42.137045 78.0637912,41.4995411 76.5914514,41.4995411 L74.1219141,41.4995411 L74.1219141,45.8702967 L76.7021175,45.8702967 Z" id="Path_108" fill="#00266F"></path>
                    <polygon id="Path_109" fill="#00266F" points="88 50 88 30 93.1137099 30 93.1137099 45.8693258 101 45.8693258 101 49.9987765"></polygon>
                    <path d="M106,50 L106,30 L113.244342,30 C117.311469,30 119.672831,31.5784644 119.672831,35.2493117 C119.672831,38.8577547 117.553069,39.4683389 116.596383,39.4683389 L116.596383,39.5172836 C117.829132,39.5779127 118.98682,40.1321748 119.812278,41.0569463 C120.637735,41.9817178 121.062611,43.2004222 120.992523,44.4423371 C120.992523,48.6026308 117.706041,49.9975528 114.0347,49.9975528 L106,50 Z M113.041593,38.4197002 C115.275478,38.4197002 116.014845,37.318446 116.014845,35.6555522 C116.014845,33.9424901 114.901545,32.9183236 112.460054,32.9183236 L109.576644,32.9183236 L109.576644,38.4245947 L113.041593,38.4197002 Z M113.369391,47.0865708 C115.416309,47.0865708 117.133001,46.4307128 117.133001,44.0409911 C117.133001,41.8213521 115.501294,40.9819517 113.342682,40.9819517 L109.579072,40.9819517 L109.579072,47.0877944 L113.369391,47.0865708 Z" id="Path_110" fill="#E50019"></path>
                    <path d="M134.571676,44.8525633 L127.415122,44.8525633 L125.67369,50 L122,50 L129.222563,30 L132.791839,30 L140,50 L136.332311,50 L134.571676,44.8525633 Z M128.347646,42.0726783 L133.655954,42.0726783 L130.980797,34.4218769 L128.347646,42.0726783 Z" id="Path_111" fill="#E50019"></path>
                    <polygon id="Path_112" fill="#E50019" points="154.27592 50 146.560119 36.5410498 146.560119 50 143 50 143 30 146.718052 30 154.490516 43.8688364 154.490516 30 158 30 158 49.9987765"></polygon>
                    <path d="M179.144505,47.1632836 C176.521819,47.1632836 176.450632,42.8742852 174.273803,40.7395061 C173.501671,39.884501 172.499473,39.2562381 171.380106,38.9254907 L179.180723,30 L174.489862,30 L166.676756,38.8428697 L166.676756,30 L163,30 L163,49.859399 L166.676756,49.859399 L166.676756,44.2970663 L168.967235,41.6920769 L169.182045,41.6920769 C173.49449,41.6920769 172.105716,49.9991256 178.03923,49.9991256 C178.697447,50.0080541 179.354762,49.9485864 180,49.8217336 L180,47.1644986 L179.144505,47.1632836 Z" id="Path_113" fill="#E50019"></path>
                    <path d="M10,12.6835629 L10,0 L0,0 L0,30 C0,22.8591453 3.811047,16.2596624 10,12.6835629" id="Path_114" fill="#00266F"></path>
                    <path d="M21.252749,10 L21.252749,20.043916 C26.574394,20.7113533 30.4226891,25.4635825 29.9751613,30.8151541 C29.5276336,36.1667257 24.9436481,40.2119402 19.5852586,39.9838971 C14.226869,39.755854 10.0022028,35.3357598 10.0097765,29.9654646 L10,29.9654646 L10,47.3122669 C17.146451,51.4489902 26.0971544,50.7625879 32.5311554,45.5844211 C38.9651563,40.4062542 41.5594918,31.8010604 39.0617455,23.9229996 C36.5639993,16.0449388 29.4877594,10.5139024 21.2490828,10" id="Path_115" fill="#00266F"></path>
                    <path d="M10.1212753,12.6113175 C3.85726561,16.1497045 0,22.6795911 0,29.7451404 L0,52 L10.1212753,52 L10.1212753,29.7342549 L10.131186,29.7342549 C10.1339969,24.7504711 13.9350012,20.5475271 19,19.9276026 L19,10 C15.8718478,10.1798052 12.8306485,11.0742509 10.1212753,12.6113175" id="Path_116" fill="#E50019"></path>
                    <g id="Group_23" transform="translate(87.000000, 60.000000)" fill="#00266F">
                        <path d="M6.2753211,10.463234 C6.04051345,10.515223 5.80040357,10.5398999 5.5598431,10.536766 C4.77391057,10.536766 4.37061907,10.1172723 4.54918489,9.40967797 L4.56619115,9.33735147 C3.98520608,10.1300083 3.04881837,10.5887625 2.06141081,10.5644911 C0.680258894,10.5644911 -0.445799001,9.49526434 0.174929785,7.0289306 C0.82724164,4.44446358 2.41975717,3.43430343 3.94060344,3.43430343 C4.68956534,3.38797898 5.40536255,3.74659706 5.81250766,4.37213708 L6.02751548,3.51988979 L7.42445893,3.51988979 L6.13319729,8.64422249 C6.02751548,9.06251076 6.09675528,9.30842087 6.56199819,9.30842087 L6.2753211,10.463234 Z M5.21364408,6.07542621 C5.24647857,5.72587915 5.12239342,5.37973966 4.87447524,5.12930387 C4.62655706,4.87886807 4.28001092,4.749597 3.92724137,4.77596005 C2.99554082,4.77596005 2.10514121,5.49922507 1.72007071,7.01205442 C1.33500022,8.52488376 1.9630174,9.22162907 2.82183394,9.22162907 C3.67330687,9.13879886 4.41489553,8.60985916 4.76540744,7.8353711 L5.21364408,6.07542621 Z" id="Path_117"></path>
                        <path d="M7.72814229,14 L9.91466247,5.33890133 C10.0167001,4.93507835 9.94746027,4.68916825 9.48221737,4.68916825 L9.77253866,3.53556053 C10.0071947,3.48275713 10.2474512,3.45847 10.4880167,3.46323403 C11.2168567,3.46323403 11.6784554,3.8815223 11.5059633,4.56018598 L11.4840981,4.64577234 C12.0639743,3.8625726 12.9927905,3.40981782 13.9718721,3.43309799 C15.3821777,3.43309799 16.5313155,4.47339418 15.9057278,6.9566041 C15.2509865,9.55312554 13.5977342,10.5644911 12.0744585,10.5644911 C10.6775151,10.5644911 10.3944822,9.67005338 10.3944822,9.67005338 L9.30122209,13.9987946 L7.72814229,14 Z M10.8354304,7.89443775 C10.7855001,8.24395497 10.8978713,8.59709708 11.1410146,8.85477838 C11.3841578,9.11245968 11.7318762,9.2469169 12.0866059,9.22042363 C13.0583926,9.22042363 13.9548659,8.4971586 14.3375069,6.98312382 C14.7420131,5.38109179 14.036253,4.77475461 13.1920133,4.77475461 C12.3486277,4.86339247 11.616981,5.39184675 11.2727345,6.16101257 L10.8354304,7.89443775 Z" id="Path_118"></path>
                        <path d="M23.9788462,10.463234 C23.7438627,10.516647 23.5031785,10.541341 23.2621535,10.536766 C22.3316677,10.536766 21.9259467,10.0172206 22.2150532,8.861202 L22.8697946,6.26347512 C23.090876,5.38229723 22.8078432,4.77716549 21.8980078,4.77716549 C20.9456202,4.8775918 20.1683083,5.57825743 19.9762995,6.50938522 L18.9765739,10.4789048 L17.4010646,10.4789048 L18.6947557,5.34010677 C18.7967934,4.9362838 18.7275535,4.69037369 18.2623106,4.69037369 L18.5526319,3.53556053 C18.7873912,3.48348885 19.027607,3.45961054 19.2681099,3.46443947 C19.9799437,3.46443947 20.4245362,3.89719304 20.2569029,4.56139142 L20.2034547,4.77716549 C20.7126957,3.9074078 21.6663985,3.39008771 22.6790814,3.43430343 C24.453807,3.43430343 24.8558837,4.66144309 24.4756722,6.17668331 L23.8537286,8.64542793 C23.7480468,9.0637162 23.8172866,9.30962631 24.2691675,9.30962631 L23.9788462,10.463234 Z" id="Path_119"></path>
                        <path d="M26.5091359,6.99879456 C26.8253822,4.99416901 28.5347824,3.49684599 30.5784929,3.43430343 C32.569441,3.43430343 33.4319018,4.80489065 32.8791981,6.99879456 C32.5538861,9.00993709 30.8336517,10.5074876 28.7819022,10.5656966 C26.8031014,10.5656966 25.9564322,9.19510935 26.5091359,6.99879456 M31.3231245,6.99879456 C31.6875446,5.54262097 31.2733205,4.77596005 30.2395823,4.77596005 C29.2058442,4.77596005 28.4174822,5.54141553 28.0530621,6.99879456 C27.6886421,8.45617358 28.0895041,9.22162907 29.1208128,9.22162907 C30.1824898,9.22162907 30.956275,8.45737903 31.3231245,6.99879456 L31.3231245,6.99879456 Z" id="Path_120"></path>
                        <path d="M44.8455371,10.4198381 C44.6306221,10.4962454 44.4044844,10.5369728 44.176219,10.5403823 C41.7916973,10.5403823 43.4716736,7.27725159 41.2900124,7.27725159 L40.4615642,7.27725159 L39.6549812,10.4813157 L38.0989076,10.4813157 L40.7373087,0.00361632512 L42.2945969,0.00361632512 L40.7567444,6.10797314 L41.6592913,6.10797314 C42.8217912,6.10797314 43.9053335,5.15446874 44.3159134,3.52350611 L45.7857408,3.52350611 C45.5260577,4.93373152 44.541101,6.10599829 43.1898555,6.61305321 C44.4228099,7.26278629 43.5141893,9.31324264 44.982802,9.31324264 L45.12857,9.31324264 L44.8455371,10.4198381 Z" id="Path_121"></path>
                        <path d="M53.1555286,10.463234 C52.920737,10.5153207 52.6806155,10.5399987 52.4400506,10.536766 C51.6541181,10.536766 51.2508266,10.1172723 51.4293924,9.40967797 L51.4476134,9.33735147 C50.8657966,10.1290283 49.9299623,10.5875114 48.942833,10.5644911 C47.5616811,10.5644911 46.4331937,9.49526434 47.0551373,7.0289306 C47.7074491,4.44446358 49.2999647,3.43430343 50.8208109,3.43430343 C51.5697192,3.38823792 52.2853919,3.74679364 52.6927151,4.37213708 L52.907723,3.51988979 L54.3034517,3.51988979 L53.0134048,8.64422249 C52.907723,9.06251076 52.9769628,9.30842087 53.4422057,9.30842087 L53.1555286,10.463234 Z M52.0950663,6.07542621 C52.1283369,5.72577474 52.004395,5.37937727 51.7563748,5.12883848 C51.5083547,4.87829969 51.1615461,4.74916618 50.8086636,4.77596005 C49.876963,4.77596005 48.9865634,5.49922507 48.6014929,7.01205442 C48.2164224,8.52488376 48.8444396,9.22162907 49.7032562,9.22162907 C50.5548214,9.13904192 51.2965205,8.61002345 51.6468297,7.8353711 L52.0950663,6.07542621 Z" id="Path_122"></path>
                        <path d="M59.1891096,10.4776993 L61.82994,0 L63.4005904,0 L62.2733177,4.47459962 C62.8336568,3.80766058 63.6662411,3.42575159 64.5412251,3.43430343 C65.9527453,3.43430343 67.1018832,4.47459962 66.4762954,6.95780954 C65.8215541,9.55433098 64.1865229,10.5656966 62.6583882,10.5656966 C61.8965564,10.6089665 61.1768951,10.2160633 60.8059198,9.55433098 L60.5714762,10.4776993 L59.1891096,10.4776993 Z M61.4169307,7.85104185 C61.354449,8.2074366 61.4611862,8.57250236 61.7061872,8.84036607 C61.9511882,9.10822977 62.3070378,9.24891779 62.6705356,9.22162907 C63.630175,9.22162907 64.5254335,8.49836404 64.9068598,6.98432926 C65.3113661,5.38229723 64.6201827,4.77596005 63.7771577,4.77596005 C62.9303947,4.86571934 62.1944954,5.39290753 61.8420874,6.16221801 L61.4169307,7.85104185 Z" id="Path_123"></path>
                        <path d="M74.40729,10.463234 C74.1724842,10.5152338 73.932373,10.5399108 73.691812,10.536766 C72.9058795,10.536766 72.502588,10.1172723 72.6811538,9.40967797 L72.6993748,9.33735147 C72.1176963,10.1291912 71.1817701,10.5877193 70.1945945,10.5644911 C68.8122278,10.5644911 67.6849552,9.49526434 68.3068987,7.0289306 C68.9567811,4.44446358 70.5505114,3.43430343 72.0725724,3.43430343 C72.821427,3.38849646 73.5369756,3.74698995 73.9444766,4.37213708 L74.1594844,3.51988979 L75.5552131,3.51988979 L74.2639515,8.64422249 C74.1582697,9.06251076 74.2275095,9.30842087 74.6927524,9.30842087 L74.40729,10.463234 Z M73.345613,6.07542621 C73.3784475,5.72587915 73.2543624,5.37973966 73.0064442,5.12930387 C72.758526,4.87886807 72.4119799,4.749597 72.0592103,4.77596005 C71.1287245,4.77596005 70.2371102,5.49922507 69.8520397,7.01205442 C69.4669692,8.52488376 70.0949863,9.22162907 70.9538029,9.22162907 C71.8053681,9.13904192 72.5470672,8.61002345 72.8973764,7.8353711 L73.345613,6.07542621 Z" id="Path_124"></path>
                        <path d="M83.3246482,10.463234 C83.0896647,10.516647 82.8489805,10.541341 82.6079555,10.536766 C81.6774696,10.536766 81.2717487,10.0172206 81.5608552,8.861202 L82.2155966,6.26347512 C82.436678,5.38229723 82.1548599,4.77716549 81.2438098,4.77716549 C80.2923546,4.87857839 79.5162596,5.57903267 79.324531,6.50938522 L78.3235906,10.4789048 L76.740793,10.4789048 L78.0369135,5.34010677 C78.1377364,4.9362838 78.0684966,4.69037369 77.602039,4.69037369 L77.893575,3.53556053 C78.1287504,3.48351925 78.3693646,3.45964189 78.6102677,3.46443947 C79.3221015,3.46443947 79.766694,3.89719304 79.5990607,4.56139142 L79.5443977,4.77716549 C80.0544292,3.90821341 81.0075982,3.39118294 82.0200245,3.43430343 C83.79475,3.43430343 84.1992563,4.66144309 83.8166152,6.17668331 L83.1946717,8.64542793 C83.0889899,9.0637162 83.1582297,9.30962631 83.6101105,9.30962631 L83.3246482,10.463234 Z" id="Path_125"></path>
                        <path d="M92.0610111,10.4198381 C91.8464581,10.4960305 91.6207557,10.5367534 91.3929077,10.5403823 C89.0071712,10.5403823 90.6871475,7.27725159 88.5054863,7.27725159 L87.6770381,7.27725159 L86.8692404,10.4813157 L85.3131668,10.4813157 L87.9539973,0.00361632512 L89.5088561,0.00361632512 L87.9710036,6.10797314 L88.8735505,6.10797314 C90.0372652,6.10797314 91.1195926,5.15446874 91.5313873,3.52350611 L93,3.52350611 C92.73852,4.93289593 91.7542088,6.10439439 90.4041146,6.61305321 C91.6370691,7.26278629 90.7272337,9.31324264 92.1970612,9.31324264 L92.3416145,9.31324264 L92.0610111,10.4198381 Z" id="Path_126"></path>
                    </g>
                </g>
            </g>
        </g>
    </g>
</svg>