<?xml version="1.0" encoding="UTF-8"?>
<svg width="17px" height="16px" viewBox="0 0 17 16" version="1.1" xmlns="http://www.w3.org/2000/svg" xmlns:xlink="http://www.w3.org/1999/xlink">
    <title>9A15EBD4-111C-485F-950D-5A93CF7F163A</title>
    <g id="Page-1" stroke="none" stroke-width="1" fill="none" fill-rule="evenodd">
        <g id="Style-sheet-RBL" transform="translate(-187.000000, -1066.000000)" fill="#9B1B26" fill-rule="nonzero">
            <g id="noun-cross-1587774" transform="translate(187.967950, 1066.000000)">
                <path d="M8,0 C3.58123364,0 0,3.58123364 0,8 C0,12.4187664 3.58123364,16 8,16 C12.4187664,16 16,12.4187664 16,8 C16,3.58123364 12.4187664,0 8,0 Z M10.7060995,6.09211486 L10.6985878,6.09962656 C10.5145504,6.29117397 10.3248744,6.47333992 10.1370734,6.66114092 L8.79623127,8.00009443 L10.7060737,9.9099369 C10.9295463,10.1334095 10.9126445,10.4827145 10.7060737,10.7061939 C10.4995029,10.9315448 10.1182899,10.9146431 9.90981671,10.7061939 L9.90230502,10.6986822 C9.71075761,10.5146448 9.52859166,10.3249689 9.34079066,10.1371679 L7.99994849,8.79821436 L6.09010602,10.7061682 C5.86663347,10.9296407 5.51732841,10.912739 5.29384899,10.7061682 C5.06849809,10.4995974 5.08539984,10.1183843 5.29384899,9.90991115 L5.30136069,9.90239945 C5.48539812,9.71085204 5.67507404,9.5286861 5.86287505,9.34088509 L7.20371722,8.00004292 L5.2957634,6.09020045 C5.07229085,5.8667279 5.0891926,5.51742284 5.2957634,5.29394343 C5.50233421,5.06859252 5.88354724,5.08549427 6.09202043,5.29394343 L6.09953213,5.30145512 C6.29107954,5.48549255 6.47324548,5.67516848 6.66104649,5.86296948 L8.00188866,7.20381165 L9.91173112,5.29396918 C10.1352037,5.07049663 10.4845087,5.08739838 10.7079882,5.29396918 C10.9314607,5.49866163 10.914559,5.88364167 10.7061102,6.09208053 L10.7060995,6.09211486 Z" id="Shape"></path>
            </g>
        </g>
    </g>
</svg>