<?xml version="1.0" encoding="UTF-8"?>
<svg width="11px" height="10px" viewBox="0 0 11 10" version="1.1" xmlns="http://www.w3.org/2000/svg" xmlns:xlink="http://www.w3.org/1999/xlink">
    <title>BE2ADB6A-1AFF-4E32-B11E-F53A0D550299</title>
    <g id="Page-1" stroke="none" stroke-width="1" fill="none" fill-rule="evenodd">
        <g id="Style-sheet-RBL" transform="translate(-273.000000, -1106.000000)" fill="#BCBDBB" fill-rule="nonzero">
            <g id="noun-check-3496109" transform="translate(273.984880, 1106.000000)">
                <path d="M5,10 C6.32604241,10 7.59792883,9.47318694 8.53552866,8.53552866 C9.47318694,7.59779246 10,6.32604241 10,5 C10,3.67395759 9.47318694,2.40207117 8.53552866,1.46447134 C7.59779246,0.526813057 6.32604241,0 5,0 C3.67395759,0 2.40207117,0.526813057 1.46447134,1.46447134 C0.526813057,2.40220754 0,3.67395759 0,5 C0,6.32604241 0.526813057,7.59792883 1.46447134,8.53552866 C2.40220754,9.47318694 3.67395759,10 5,10 Z M2.40460365,5.13180554 C2.48975517,5.04718584 2.60496131,4.99962597 2.72503955,4.99962597 C2.8451957,4.99962597 2.96032587,5.04718584 3.04555337,5.13180554 L4.09095868,6.17728877 L6.7227837,3.54546375 C6.83981906,3.44524596 6.99962208,3.41115496 7.14732376,3.4548343 C7.29510142,3.49851363 7.41062314,3.61410354 7.45429858,3.76180912 C7.49805389,3.90958678 7.46388672,4.06938784 7.36366913,4.18642711 L4.40905106,7.14104517 L4.40912717,7.14096908 C4.32389968,7.22566475 4.20876951,7.27314864 4.08861335,7.27314864 C3.96853317,7.27314864 3.85332703,7.22566475 3.76817746,7.14096908 L2.40453755,5.77732917 C2.31847239,5.69202571 2.27007681,5.57582216 2.27007681,5.45461405 C2.27007681,5.33346828 2.31847434,5.21726279 2.40453755,5.13189893 L2.40460365,5.13180554 Z" id="Shape"></path>
            </g>
        </g>
    </g>
</svg>