<?xml version="1.0" encoding="UTF-8"?>
<svg width="33px" height="33px" viewBox="0 0 33 33" version="1.1" xmlns="http://www.w3.org/2000/svg" xmlns:xlink="http://www.w3.org/1999/xlink">
    <title>twitter</title>
    <g id="Page-1" stroke="none" stroke-width="1" fill="none" fill-rule="evenodd">
        <g id="Forgot-password-5" transform="translate(-1075.000000, -936.000000)">
            <g id="twitter" transform="translate(1075.000000, 936.000000)">
                <circle id="Oval-Copy" fill="#FFFFFF" cx="16.5" cy="16.5" r="16.5"></circle>
                <g id="1220342_twitter_media_social_tweet_icon" transform="translate(9.000000, 10.000000)" fill="#037BFF" fill-rule="nonzero">
                    <path d="M0,11.5360123 C1.79215145,11.7058578 3.37921514,11.2592271 4.82745021,10.1772483 C4.45198186,10.1489407 4.12384145,10.0986161 3.80832183,9.9853858 C2.98166042,9.68658353 2.36324196,9.15503002 1.96253204,8.37499883 C1.90573851,8.26491378 1.85841057,8.14539287 1.80477223,8.03216254 C1.7479787,7.91264163 1.80477223,7.89691519 1.90889371,7.91264163 C2.31906922,7.97869266 2.72608953,7.95038507 3.12995464,7.86860761 C3.13942023,7.86546232 3.14573063,7.85602646 3.15519621,7.84973589 C3.16150661,7.80570187 3.12679945,7.7994113 3.09840268,7.79312072 C2.18339578,7.56666005 1.4987182,7.03196125 1.02859397,6.22676777 C0.763557484,5.77070114 0.62472885,5.27689107 0.608952869,4.74848285 C0.605797673,4.61323551 0.643660028,4.59750907 0.757247091,4.65097895 C1.16111221,4.84598675 1.5870637,4.96550766 2.07296391,4.98123409 C1.8363242,4.79566215 1.62492605,4.62581665 1.44823506,4.41822771 C0.801419838,3.66021353 0.53322816,2.78896901 0.662591205,1.79820359 C0.709919148,1.430205 0.826661408,1.08736871 0.987576415,0.753968284 C1.04752514,0.631302089 1.09169789,0.615575654 1.18319858,0.725660701 C1.71011635,1.36415397 2.32537961,1.90828863 3.0037468,2.38008169 C3.51173339,2.73549913 4.05442713,3.03115611 4.62236245,3.27963379 C5.35752317,3.59730779 6.12423585,3.81433259 6.9130349,3.94014407 C7.17807139,3.98103281 7.44626306,3.99046867 7.71129955,4.02192154 C7.8343522,4.03450269 7.85328338,3.98732338 7.831197,3.87723833 C7.69867876,3.19156575 7.78702426,2.52791019 8.0867679,1.90199806 C8.55689213,0.926959072 9.32360481,0.304192235 10.3932163,0.0777315665 C11.4502071,-0.145583815 12.3873003,0.118620298 13.2202721,0.788566442 C13.4884638,1.19116319 13.8260698,0.955266656 14.1321238,0.870343905 C14.6180241,0.735096562 15.0755275,0.524362329 15.5298758,0.288465799 C15.2995464,1.02131768 14.8451982,1.58432407 14.2110037,2.02151897 C14.8231118,1.98063024 15.3942023,1.79191301 16,1.5528712 C15.839085,1.80763945 15.6718596,2.00579253 15.5077894,2.20394562 C15.2017354,2.56879892 14.8483534,2.87703705 14.472885,3.16325817 C14.3940051,3.22301863 14.3719188,3.28277908 14.3750739,3.3739924 C14.3940051,4.03450269 14.3403668,4.69186768 14.2204693,5.3429421 C14.0942615,6.02546939 13.8923289,6.68283439 13.6241373,7.32132766 C13.3243936,8.03216254 12.9457701,8.70525397 12.4851114,9.32487552 C11.9108657,10.0986161 11.2324985,10.7748529 10.4436995,11.3347139 C9.38039834,12.0895828 8.20351016,12.5802476 6.92250049,12.82558 C6.12108065,12.9796991 5.31019523,13.0268784 4.49299941,12.9859897 C3.85880497,12.9545368 3.24038651,12.8570329 2.63143364,12.6997685 C1.86787616,12.5016154 1.13587064,12.212249 0.451193059,11.8222334 C0.306054033,11.7373107 0.145139026,11.6806955 0,11.5360123 Z" id="Path"></path>
                </g>
            </g>
        </g>
    </g>
</svg>